<svg xmlns="http://www.w3.org/2000/svg" width="20" height="20" viewBox="0 0 20 20">
  <defs>
    <style>
      .cls-1 {
        fill: none;
      }

      .cls-2 {
        fill: #261621;
      }
    </style>
  </defs>
  <g id="Group_12" data-name="Group 12" transform="translate(-457.251 -675.251)">
    <rect id="Rectangle_21" data-name="Rectangle 21" class="cls-1" width="20" height="20" transform="translate(457.251 675.251)"/>
    <g id="at" transform="translate(457.422 677.505)">
      <path id="Path_10" data-name="Path 10" class="cls-2" d="M15.385,1.953A7.481,7.481,0,0,0,10.117,0,7.865,7.865,0,0,0,4.479,2.222,7.336,7.336,0,0,0,2.15,7.752a7.566,7.566,0,0,0,2.215,5.455,7.956,7.956,0,0,0,5.979,2.285,11.194,11.194,0,0,0,4.447-.932.948.948,0,0,0,.512-1.223h0a.945.945,0,0,0-1.251-.512,9.36,9.36,0,0,1-3.71.815,5.7,5.7,0,0,1-4.466-1.757A5.965,5.965,0,0,1,4.3,7.762,5.871,5.871,0,0,1,5.99,3.473a5.606,5.606,0,0,1,4.156-1.719,5.518,5.518,0,0,1,3.837,1.413,4.587,4.587,0,0,1,1.564,3.555,4.008,4.008,0,0,1-.717,2.44,1.939,1.939,0,0,1-1.489.973c-.278,0-.417-.149-.417-.449a8.319,8.319,0,0,1,.054-.856l.588-4.807H11.542l-.13.471a2.625,2.625,0,0,0-1.694-.632,3.24,3.24,0,0,0-2.5,1.163,4.309,4.309,0,0,0-1.04,2.993A4.326,4.326,0,0,0,7.1,10.9,2.806,2.806,0,0,0,9.324,12a2.519,2.519,0,0,0,1.985-.973,2.055,2.055,0,0,0,1.83.932A3.889,3.889,0,0,0,16.21,10.41a5.625,5.625,0,0,0,1.3-3.732A6.187,6.187,0,0,0,15.385,1.953ZM10.727,9.225a1.568,1.568,0,0,1-1.28.724.921.921,0,0,1-.815-.531A2.562,2.562,0,0,1,8.319,8.1a2.608,2.608,0,0,1,.436-1.574,1.3,1.3,0,0,1,1.081-.6,1.349,1.349,0,0,1,1,.449,1.647,1.647,0,0,1,.436,1.2A2.735,2.735,0,0,1,10.727,9.225Z"/>
    </g>
  </g>
</svg>
