<svg xmlns="http://www.w3.org/2000/svg" width="16.568" height="20" viewBox="0 0 16.568 20">
  <defs>
    <style>
      .cls-1 {
        fill: #ea742a;
      }
    </style>
  </defs>
  <path id="Subtraction_1" data-name="Subtraction 1" class="cls-1" d="M-3815.053,27.663h0l-5.856-5.858a8.23,8.23,0,0,1-2.427-5.858,8.23,8.23,0,0,1,2.427-5.858,8.23,8.23,0,0,1,5.858-2.426,8.23,8.23,0,0,1,5.858,2.426,8.23,8.23,0,0,1,2.427,5.858,8.23,8.23,0,0,1-2.427,5.858l-5.857,5.858Zm0-13.955a2.241,2.241,0,0,0-2.238,2.239,2.241,2.241,0,0,0,2.238,2.239,2.242,2.242,0,0,0,2.239-2.239A2.242,2.242,0,0,0-3815.053,13.708Z" transform="translate(3823.337 -7.663)"/>
</svg>
