<svg xmlns="http://www.w3.org/2000/svg" width="19.825" height="20" viewBox="0 0 19.825 20">
  <defs>
    <style>
      .cls-1 {
        fill: #ea742a;
      }
    </style>
  </defs>
  <g id="at" transform="translate(-2.15)">
    <path id="Path_10" data-name="Path 10" class="cls-1" d="M19.237,2.521A9.657,9.657,0,0,0,12.436,0,10.153,10.153,0,0,0,5.157,2.868a9.471,9.471,0,0,0-3.007,7.14A9.767,9.767,0,0,0,5.01,17.05,10.271,10.271,0,0,0,12.729,20a14.452,14.452,0,0,0,5.741-1.2,1.223,1.223,0,0,0,.661-1.579h0a1.22,1.22,0,0,0-1.616-.661,12.084,12.084,0,0,1-4.79,1.053A7.356,7.356,0,0,1,6.96,15.341a7.7,7.7,0,0,1-2.04-5.32A7.58,7.58,0,0,1,7.107,4.484a7.238,7.238,0,0,1,5.365-2.22,7.124,7.124,0,0,1,4.953,1.824,5.921,5.921,0,0,1,2.02,4.59,5.175,5.175,0,0,1-.926,3.15A2.5,2.5,0,0,1,16.6,13.084c-.359,0-.539-.192-.539-.579a10.74,10.74,0,0,1,.069-1.106l.759-6.206H14.276l-.167.608a3.388,3.388,0,0,0-2.187-.816,4.183,4.183,0,0,0-3.227,1.5,5.563,5.563,0,0,0-1.342,3.864,5.585,5.585,0,0,0,1.191,3.725,3.623,3.623,0,0,0,2.868,1.416,3.253,3.253,0,0,0,2.562-1.257,2.653,2.653,0,0,0,2.362,1.2,5.021,5.021,0,0,0,3.966-2,7.262,7.262,0,0,0,1.673-4.818A7.987,7.987,0,0,0,19.237,2.521Zm-6.014,9.388a2.024,2.024,0,0,1-1.652.934,1.19,1.19,0,0,1-1.053-.685,3.308,3.308,0,0,1-.4-1.705,3.367,3.367,0,0,1,.563-2.032,1.681,1.681,0,0,1,1.4-.775,1.742,1.742,0,0,1,1.285.579,2.126,2.126,0,0,1,.563,1.546A3.531,3.531,0,0,1,13.223,11.909Z"/>
  </g>
</svg>
