<svg xmlns="http://www.w3.org/2000/svg" width="20" height="20" viewBox="0 0 20 20">
  <defs>
    <style>
      .cls-1 {
        fill: none;
      }

      .cls-2 {
        fill: #ea742a;
        stroke: #ea742a;
        stroke-width: 0.8px;
      }
    </style>
  </defs>
  <g id="Group_8950" data-name="Group 8950" transform="translate(0 0.09)">
    <rect id="Rectangle_21" data-name="Rectangle 21" class="cls-1" width="20" height="20" transform="translate(0 -0.09)"/>
    <path id="sign-in" class="cls-2" d="M6.851,5.778H-.581A.419.419,0,0,1-1,5.359.419.419,0,0,1-.581,4.94H6.851L5.342,3.16a.419.419,0,1,1,.639-.541l2.093,2.47a.42.42,0,0,1,0,.541L5.98,8.1a.419.419,0,0,1-.639-.541ZM11.3,0H7.661a.419.419,0,0,0,0,.837h3.22V9.881H7.661a.419.419,0,0,0,0,.837H11.3a.419.419,0,0,0,.419-.419V.419A.419.419,0,0,0,11.3,0Zm0,0" transform="translate(4.641 4.303)"/>
  </g>
</svg>
