<svg xmlns="http://www.w3.org/2000/svg" width="182.916" height="182.923" viewBox="0 0 182.916 182.923">
  <defs>
    <style>
      .cls-1 {
        fill: #ea742a;
      }

      .cls-2 {
        fill: #fdba9c;
      }

      .cls-3 {
        fill: #ffe4d5;
      }
    </style>
  </defs>
  <g id="coin" transform="translate(-0.01)">
    <path id="Path_1386" data-name="Path 1386" class="cls-1" d="M204.1,0a51.088,51.088,0,1,0,51.088,51.088A51.145,51.145,0,0,0,204.1,0Z" transform="translate(-98.34)"/>
    <path id="Path_1387" data-name="Path 1387" class="cls-2" d="M154.906,280.565l-52.035,15.326a34.209,34.209,0,0,1,2.529,12.958v1.883A18.4,18.4,0,0,1,79.464,327.5L52.187,315.226a5.359,5.359,0,0,1,4.4-9.775l27.277,12.275a7.667,7.667,0,0,0,10.821-7v-1.883a23.194,23.194,0,0,0-13.825-21.054L57.289,277.189a34.7,34.7,0,0,0-28.784.125L3.15,288.853A5.357,5.357,0,0,0,.01,293.73v57.025A5.363,5.363,0,0,0,7.277,355.9L42.96,342.306,85.4,357.161a34.532,34.532,0,0,0,29.088-2.887l57.736-34a21.828,21.828,0,0,0-17.32-39.709Z" transform="translate(0 -176.192)"/>
    <path id="Path_1388" data-name="Path 1388" class="cls-3" d="M2.24,5.509H7.661a14.156,14.156,0,0,0,7.392-1.675A10.414,10.414,0,0,0,19.142-.6,15.743,15.743,0,0,0,20.67-6.514H2.24v-5.618H20.177q-1.971-7.49-11.432-7.49H2.24V-25.24h40.6v5.618H30.033a13.346,13.346,0,0,1,4.632,7.49h8.18v5.618H35.059a17.652,17.652,0,0,1-3.252,8.476Q28.949,6.1,22.148,8.072q5.519,1.281,7.983,4.484A18.089,18.089,0,0,1,33.482,19.9l2.267,11.038,7.195.887v5.125a40.229,40.229,0,0,1-4.435.986,32.563,32.563,0,0,1-5.322.394,23.347,23.347,0,0,1-5.963-.739,10.156,10.156,0,0,1-4.78-2.76,10.959,10.959,0,0,1-2.661-5.864l-2.07-9.658q-.986-4.336-3.1-6.258T7.956,11.127H2.24Z" transform="translate(83.167 44.544)"/>
  </g>
</svg>
