<svg xmlns="http://www.w3.org/2000/svg" width="180.856" height="182.142" viewBox="0 0 180.856 182.142">
  <defs>
    <style>
      .cls-1 {
        fill: #fdba9c;
      }

      .cls-2 {
        fill: #ea742a;
      }

      .cls-3 {
        fill: #ffc9ab;
      }

      .cls-4 {
        fill: #ffe4d5;
      }
    </style>
  </defs>
  <g id="Group_9014" data-name="Group 9014" transform="translate(-189 -5999)">
    <g id="Group_9014-2" data-name="Group 9014" transform="translate(189 5999)">
      <path id="Path_1379" data-name="Path 1379" class="cls-1" d="M4117.522,3797.41c0-17.048-.011-29.662.011-42.276a15.257,15.257,0,0,1,.985-6.343c2.393-5.322,7.6-7.84,13.57-6.636a11.724,11.724,0,0,1,9.232,11.326c.077,7.352-.015,14.705-.021,22.057,0,2.884.064,2.943,2.947,2.945,6.408.006,12.816-.062,19.223.027,3.883.055,7.57.612,10.6,3.611a10.343,10.343,0,0,1,3.256,7.545c.019.945.015,1.889.015,2.833,0,12.126-.28,24.26.1,36.375.263,8.489.3,16.97.411,25.455.025,1.969-.466,2.693-2.584,2.685q-27.725-.118-55.449-.008c-1.956.006-2.51-.614-2.525-2.539C4117.122,3833.969,4117.85,3813.474,4117.522,3797.41Z" transform="translate(-4040.266 -3675.551)"/>
      <path id="Path_1380" data-name="Path 1380" class="cls-2" d="M4103.509,3683.884c-.064-12.918,10.961-23.889,24.053-23.934a24.269,24.269,0,1,1-24.053,23.934Z" transform="translate(-4037.646 -3659.95)"/>
      <path id="Path_1381" data-name="Path 1381" class="cls-3" d="M4218.93,3712.108c5.191,0,10.383.049,15.572-.028,1.757-.026,2.5.415,2.487,2.369q-.131,15.876-.008,31.753c.012,1.8-.614,2.307-2.347,2.3q-15.875-.09-31.751,0c-1.792.01-2.325-.614-2.315-2.349q.086-15.876,0-31.752c-.009-1.791.663-2.344,2.385-2.319C4208.277,3712.155,4213.6,3712.108,4218.93,3712.108Z" transform="translate(-4056.134 -3669.879)"/>
      <path id="Path_1382" data-name="Path 1382" class="cls-4" d="M4045.71,3748.662q-10.923,0-21.847-.013c-.564,0-1.329.3-1.65-.358-.256-.53.321-.98.607-1.412q10.871-16.336,21.747-32.668c.828-1.248,1.348-1.677,2.375-.123,7.179,10.852,14.425,21.659,21.628,32.5.349.525,1.111,1.085.681,1.759-.39.61-1.247.309-1.9.309Q4056.533,3748.677,4045.71,3748.662Z" transform="translate(-4022.149 -3670.071)"/>
    </g>
    <rect id="Rectangle_3053" data-name="Rectangle 3053" class="cls-2" width="62.333" height="25.905" rx="3" transform="translate(265.095 6155.238)"/>
  </g>
</svg>
