<svg xmlns="http://www.w3.org/2000/svg" width="20" height="20" viewBox="0 0 20 20">
  <defs>
    <style>
      .cls-1 {
        fill: none;
      }

      .cls-2 {
        fill: #ea742a;
        stroke: #261621;
      }
    </style>
  </defs>
  <g id="Group_12" data-name="Group 12" transform="translate(-457.251 -675.251)">
    <rect id="Rectangle_21" data-name="Rectangle 21" class="cls-1" width="20" height="20" transform="translate(457.251 675.251)"/>
    <g id="phone-numbers-call" transform="matrix(0.259, -0.966, 0.966, 0.259, 458.557, 690.875)">
      <g id="Group_8996" data-name="Group 8996" transform="translate(1.016 0)">
        <path id="Path_1349" data-name="Path 1349" class="cls-2" d="M14,1.5c-.033-.031-.1-.084-.151-.119A5.907,5.907,0,0,0,10.352,0C8.19.1,5.316,3.021,4.487,3.913S.958,7.885,1.016,10.046a3.644,3.644,0,0,0,.225,1.135,7.418,7.418,0,0,0,1.4,2.243s.1.112.141.155a1.287,1.287,0,0,0,.523.263,1.233,1.233,0,0,0,.331.042,1.336,1.336,0,0,0,.443-.071,1.29,1.29,0,0,0,.5-.3c.08-.086,1.607-2.035,1.615-2.048l.01-.015a1.35,1.35,0,0,0,.188-.328,1.307,1.307,0,0,0,.013-.916,1.241,1.241,0,0,0-.321-.49l-.717-.67a.649.649,0,0,1-.147-.221.594.594,0,0,1-.011-.093l4.177-4.5a.08.08,0,0,1,.027-.019l.016.006a1.552,1.552,0,0,1,.245.191l.717.663a1.3,1.3,0,0,0,1.421.215,1.54,1.54,0,0,0,.342-.239l.032-.026C12.2,5.016,14,3.375,14.07,3.3a1.353,1.353,0,0,0,.281-.878,1.315,1.315,0,0,0-.159-.677A1.2,1.2,0,0,0,14,1.5Zm-.518,1.238c-.093.092-1.729,1.585-1.815,1.663l-.067.055a.707.707,0,0,1-.147.106.473.473,0,0,1-.517-.081l-.718-.664a1.99,1.99,0,0,0-.477-.341A.856.856,0,0,0,9.4,3.408a.87.87,0,0,0-.607.278L4.575,8.226a.828.828,0,0,0-.152.747,1.374,1.374,0,0,0,.391.665l.718.671a.436.436,0,0,1,.111.171.5.5,0,0,1-.005.349.557.557,0,0,1-.081.135.5.5,0,0,0-.03.042c-.145.187-1.462,1.863-1.538,1.953a.7.7,0,0,1-.194.1.553.553,0,0,1-.16.02.42.42,0,0,1-.105-.01.816.816,0,0,1-.2-.077c-.026-.026-.071-.081-.079-.09A6.634,6.634,0,0,1,2,10.908a2.837,2.837,0,0,1-.178-.882C1.785,8.549,3.553,6.106,5.08,4.464S8.913.879,10.389.811a5.089,5.089,0,0,1,2.967,1.213l.029.022c.017.013.05.036.064.047a.507.507,0,0,1,.053.074.585.585,0,0,1,.041.217A1.213,1.213,0,0,1,13.484,2.743Z" transform="translate(-1.015 0)"/>
      </g>
    </g>
  </g>
</svg>
