<svg id="layer1" xmlns="http://www.w3.org/2000/svg" width="25.834" height="20.995" viewBox="0 0 25.834 20.995">
  <defs>
    <style>
      .cls-1 {
        fill: #242424;
      }
    </style>
  </defs>
  <path id="path5" class="cls-1" d="M308.155,398.793a10.6,10.6,0,0,1-3.044.835,5.315,5.315,0,0,0,2.33-2.932,10.611,10.611,0,0,1-3.366,1.286,5.305,5.305,0,0,0-9.032,4.834,15.047,15.047,0,0,1-10.925-5.538,5.306,5.306,0,0,0,1.64,7.076,5.279,5.279,0,0,1-2.4-.663c0,.022,0,.044,0,.067a5.3,5.3,0,0,0,4.252,5.2,5.312,5.312,0,0,1-2.394.091,5.305,5.305,0,0,0,4.951,3.681A10.634,10.634,0,0,1,283.585,415a10.781,10.781,0,0,1-1.264-.074,15.074,15.074,0,0,0,23.205-12.7q0-.345-.015-.686a10.767,10.767,0,0,0,2.645-2.743Z" transform="translate(-282.321 -396.307)"/>
</svg>
