<svg xmlns="http://www.w3.org/2000/svg" xmlns:xlink="http://www.w3.org/1999/xlink" width="536" height="487" viewBox="0 0 536 487">
  <defs>
    <style>
      .cls-1, .cls-4 {
        fill: #fff;
      }

      .cls-1 {
        stroke: #707070;
      }

      .cls-2 {
        clip-path: url(#clip-path);
      }

      .cls-3 {
        fill: #ea742a;
        opacity: 0.1;
      }

      .cls-5 {
        fill: #c9b185;
      }

      .cls-6 {
        fill: #383838;
      }

      .cls-7 {
        fill: #b77d29;
      }

      .cls-8 {
        fill: #c1883e;
      }

      .cls-9 {
        fill: #86868d;
      }

      .cls-10 {
        fill: #a7c3b4;
      }

      .cls-11 {
        fill: #b8ccc1;
      }

      .cls-12 {
        fill: #3f4c45;
      }

      .cls-13 {
        fill: #3a4c42;
      }

      .cls-14 {
        fill: #a57132;
      }

      .cls-15 {
        fill: #232323;
      }

      .cls-16 {
        fill: #9e7852;
      }

      .cls-17 {
        fill: #b78d5e;
      }

      .cls-18 {
        fill: #8e6844;
      }

      .cls-19 {
        fill: #7f5a3b;
      }

      .cls-20 {
        fill: #c9816b;
      }

      .cls-21 {
        fill: #d8d8d8;
      }

      .cls-22 {
        fill: #e8cdcf;
      }

      .cls-23 {
        fill: #eaa88b;
      }

      .cls-24 {
        fill: #d39079;
      }

      .cls-25 {
        fill: #ffba97;
      }

      .cls-26 {
        fill: #75434e;
      }

      .cls-27 {
        fill: #562832;
      }

      .cls-28 {
        fill: #69343d;
      }

      .cls-29 {
        fill: #7f4f5c;
      }

      .cls-30 {
        fill: #261621;
      }

      .cls-31 {
        fill: #493d46;
      }

      .cls-32 {
        fill: #f9ddde;
      }

      .cls-33 {
        fill: #db947b;
      }

      .cls-34 {
        fill: #775a2f;
      }

      .cls-35 {
        fill: #ffb288;
      }

      .cls-35, .cls-36 {
        opacity: 0.7;
      }

      .cls-36 {
        fill: #fc9c6d;
      }
    </style>
    <clipPath id="clip-path">
      <rect id="Rectangle_3055" data-name="Rectangle 3055" class="cls-1" width="536" height="487" transform="translate(711.632 2659)"/>
    </clipPath>
  </defs>
  <g id="Mask_Group_3" data-name="Mask Group 3" class="cls-2" transform="translate(-711.632 -2659)">
    <g id="Group_8598" data-name="Group 8598" transform="translate(719.289 2685.417)">
      <g id="Floor" transform="translate(0 315.95)">
        <path id="Path_121" data-name="Path 121" class="cls-3" d="M359.535,477.561c-.237,4.48-7.764,7.6-15.106,6.235-25.313-4.7-73.015-11.21-71.87,6.768,1.556,24.442,0,40.736,0,40.736s-4.67,16.295,34.248,17.2,135.436-6.337,135.436-6.337,32.692,0,32.692,15.389,288,1.81,288,1.81,29.578,7.242,31.135-26.252,6.227-70.611-46.7-72.421-336.255-13.579-364.277-12.674C364.125,448.629,360.134,466.239,359.535,477.561Z" transform="translate(-272.384 -447.967)"/>
        <path id="Path_122" data-name="Path 122" class="cls-4" d="M366.239,541.035l-31.932-1.978c-4.481-.277-7.157-4.738-4.981-8.3l9.421-15.445a6.146,6.146,0,0,1,5.487-2.81l24.467.847c3.554.124,6.271,2.992,5.89,6.219l-1.956,16.577A5.878,5.878,0,0,1,366.239,541.035Z" transform="translate(-285.745 -463.314)"/>
        <path id="Path_123" data-name="Path 123" class="cls-4" d="M506.015,542.978l-37.576,2.771c-5.273.389-9.1-4.39-7.133-8.9l8.537-19.522a7.238,7.238,0,0,1,5.956-4.151l28.684-2.9c4.167-.421,7.794,2.493,7.862,6.321l.354,19.654A6.922,6.922,0,0,1,506.015,542.978Z" transform="translate(-317.194 -462.777)"/>
        <path id="Path_124" data-name="Path 124" class="cls-4" d="M835.249,552.976l-48.932,3.61c-6.866.507-11.856-5.717-9.289-11.587l11.117-25.421a9.423,9.423,0,0,1,7.756-5.406l37.354-3.782c5.427-.549,10.149,3.247,10.239,8.23l.462,25.593C844.037,548.757,840.209,552.61,835.249,552.976Z" transform="translate(-392.249 -462.801)"/>
        <path id="Path_125" data-name="Path 125" class="cls-4" d="M863.4,472.324l-20.561,1.517c-2.885.213-4.981-2.4-3.9-4.869l4.671-10.681a3.96,3.96,0,0,1,3.259-2.272l15.695-1.589a3.758,3.758,0,0,1,4.3,3.459l.193,10.754A3.786,3.786,0,0,1,863.4,472.324Z" transform="translate(-407.069 -449.499)"/>
        <path id="Path_126" data-name="Path 126" class="cls-4" d="M639.941,521.631l-31.932-1.978c-4.481-.277-7.157-4.738-4.981-8.3l9.421-15.445a6.145,6.145,0,0,1,5.488-2.81l24.467.847c3.554.123,6.271,2.991,5.89,6.219l-1.956,16.576A5.878,5.878,0,0,1,639.941,521.631Z" transform="translate(-350.844 -458.699)"/>
        <path id="Path_127" data-name="Path 127" class="cls-4" d="M558.186,482.922,535.224,481.5c-3.222-.2-5.146-3.407-3.581-5.971l6.775-11.107a4.419,4.419,0,0,1,3.946-2.02l17.594.609a4.193,4.193,0,0,1,4.236,4.472l-1.407,11.92A4.226,4.226,0,0,1,558.186,482.922Z" transform="translate(-333.916 -451.399)"/>
        <path id="Path_128" data-name="Path 128" class="cls-4" d="M436.172,508.408H409.717c-3.712,0-6.149-3.441-4.536-6.407l6.987-12.844a5.106,5.106,0,0,1,4.385-2.524l20.237-.536c2.94-.078,5.329,2.086,5.18,4.692l-.767,13.38A4.814,4.814,0,0,1,436.172,508.408Z" transform="translate(-303.849 -457.035)"/>
        <path id="Path_129" data-name="Path 129" class="cls-5" d="M649.465,454.24s2.765-.018,4.107-1.168c.032-.027.064.348.678.225l.3,1.565Z" transform="translate(-362.072 -449.181)"/>
        <path id="Path_131" data-name="Path 131" class="cls-4" d="M1058.958,484.792l-26.24,1.935c-3.682.272-6.339-2.814-4.946-5.744l6.031-12.691a5.123,5.123,0,0,1,4.173-2.714l20.033-1.988c2.91-.289,5.431,1.588,5.465,4.07l.175,12.745C1063.68,482.666,1061.617,484.6,1058.958,484.792Z" transform="translate(-451.961 -451.676)"/>
        <path id="Path_132" data-name="Path 132" class="cls-4" d="M1083.469,508.281l-26.239,1.936c-3.682.271-6.339-2.814-4.947-5.744l6.03-12.692a5.125,5.125,0,0,1,4.173-2.714l20.034-1.988c2.91-.289,5.43,1.588,5.465,4.07l.175,12.745C1088.191,506.155,1086.128,508.085,1083.469,508.281Z" transform="translate(-457.791 -457.262)"/>
        <path id="Path_133" data-name="Path 133" class="cls-4" d="M960.916,483.77l-26.24,1.936c-3.682.271-6.339-2.814-4.946-5.744l6.03-12.691a5.124,5.124,0,0,1,4.173-2.714l20.033-1.989c2.911-.289,5.431,1.589,5.465,4.071l.175,12.744C965.638,481.644,963.575,483.574,960.916,483.77Z" transform="translate(-428.642 -451.433)"/>
      </g>
      <g id="Boy_in_Green" data-name="Boy in Green" transform="translate(404.307 85.904)">
        <g id="Group_8592" data-name="Group 8592" transform="translate(0)">
          <path id="Path_134" data-name="Path 134" class="cls-6" d="M843.155,423.9l4.224,49.485,7.938,51.191,2.258.512Z" transform="translate(-824.803 -237.963)"/>
          <g id="Group_8591" data-name="Group 8591" transform="translate(6.877 7.55)">
            <path id="Path_135" data-name="Path 135" class="cls-7" d="M868.978,286.008c-.488,5.464,1.361,12.16,3,16.842v.01c.565,1.623,1.121,3.037,1.566,4.13.1.271.206.521.3.742.4.992.668,1.594.668,1.654-.043,0-2.405,1.263-5.46,2.727h-.008c-.052.03-.095.05-.155.08h-.008c-.66.31-1.335.641-2.037.962-6.015,2.747-13.127,5.383-11.56,1.513.016-.04.025-.07.043-.11a8.923,8.923,0,0,0,.548-2.857c.187-3.92-1.412-8.772-2.782-12.15a10.409,10.409,0,0,0,6.025-3.89c4.159-5.964,9.541-12.992,11.236-15.739,1.514-2.447,7.076-6.537,8.394-8.381.017.03.009.07-.017.13C877.715,274.059,868.978,286.008,868.978,286.008Z" transform="translate(-831.503 -248.228)"/>
            <path id="Path_136" data-name="Path 136" class="cls-8" d="M879.013,271.366a1.458,1.458,0,0,1-.22.608c-1.114,2.021-6.2,6.886-7.446,9.532-1.391,2.971-5.991,10.724-9.489,17.245a10.986,10.986,0,0,1-5.568,4.732,24.552,24.552,0,0,1-8.3,1.8.448.448,0,0,1-.428-.382c-.115-.423-.359-.976-.556-1.529-.29-.659-.561-1.43-.927-2.114a85.473,85.473,0,0,1-5.561-13.464c-2.3-6.948-3.927-13.661-4.6-16.633a.2.2,0,0,1-.016-.068,14.461,14.461,0,0,1-.258-1.447c-.806-6.611,3.187-12.2,3.187-12.2,4.686-5.725,13.416-8.453,13.416-8.453C877.965,245.445,879.053,269.956,879.013,271.366Z" transform="translate(-831.816 -248.637)"/>
            <path id="Path_137" data-name="Path 137" class="cls-8" d="M856.137,522.979s-5.644,11.87-22.685,18.951c0,0-3.277,2.219-.363,3.072s27.09-15.785,27.09-15.785l-2.475-7Z" transform="translate(-831.881 -243.76)"/>
            <path id="Path_138" data-name="Path 138" class="cls-7" d="M857.1,523.563s-6.117,13.822-19.445,19.2,5.463,6.4,10.488,5.374,12.015.768,16.167,0,7.209-3.071,6.336-7.934-1.893-14.846-1.893-14.846Z" transform="translate(-831.862 -243.736)"/>
            <path id="Path_139" data-name="Path 139" class="cls-9" d="M842.941,423.606s6.117,55.627,7.137,56.992,6.7,45.475,6.7,45.475,6.409,6.74,11.8,1.45c0,0,6.408-48.461,5.388-53.067s-1.893-63.989-1.893-63.989l-9.176-8.532-19.081,20.648Z" transform="translate(-831.684 -245.904)"/>
            <path id="Path_140" data-name="Path 140" class="cls-10" d="M853.661,314.741s-17.734,49.4-15.439,81.565c1.62,22.711,4.515,30.2,4.515,30.2s8.739-10.75,10.924-12.8,8.885-4.436,9.613-3.924,6.846,2.9,7.865,3.583,7.137-26.278,7.137-32.421c0-6.371,2.913-66.208-3.641-74.91Z" transform="translate(-831.771 -247.613)"/>
            <path id="Path_141" data-name="Path 141" class="cls-11" d="M850.561,317.539l4.4-6.559s6.345,2.474,17.705-9.3l1.894,4.436S870.661,314.98,850.561,317.539Z" transform="translate(-831.548 -247.691)"/>
            <path id="Path_142" data-name="Path 142" class="cls-12" d="M850.613,317.282l-.71,2.1,2.526-2.368Z" transform="translate(-831.56 -247.418)"/>
            <path id="Path_143" data-name="Path 143" class="cls-12" d="M854.156,307.391" transform="translate(-831.484 -247.589)"/>
            <path id="Path_144" data-name="Path 144" class="cls-13" d="M858.4,331.573l.8,13.651s4.3,17.319,4.151,19.794S861.6,409.3,861.6,409.3l2.039-.171,2.913-47.522-4.661-32.933-3.423,2.644Z" transform="translate(-831.408 -247.21)"/>
            <path id="Path_145" data-name="Path 145" class="cls-11" d="M868.883,311.32l6.555,7.423,3.276,48.632-8.739,45.815s-6.117,3.327-7.647-4.351l3.059-44.024s-7.646-26.619-6.99-33.53S864.95,311.577,868.883,311.32Z" transform="translate(-831.409 -247.519)"/>
            <path id="Path_146" data-name="Path 146" class="cls-7" d="M863.222,408.514s-4.151,4.565-4.624,6.741-2.585,7.934-3.241,8.489,1.93,1.834,2.768.938,2.913-6.228,3.422-6.442-4.915,6.656-3.9,8.19a1.635,1.635,0,0,0,2.258.768.842.842,0,0,0,.291.81,2.471,2.471,0,0,0,2.876-.767s0,1.109.582,1.194,1.6-.81,1.6-.81-.037.683.255.683a5.112,5.112,0,0,0,2.366-1.195c.364-.555,2.55-4.18,2.55-4.863s-.11-11.348-.11-11.348Z" transform="translate(-831.464 -245.787)"/>
            <path id="Path_147" data-name="Path 147" class="cls-14" d="M857.832,424.447l3.55-6.783s.574-.384.383.384S857.832,424.447,857.832,424.447Z" transform="translate(-831.418 -245.625)"/>
            <path id="Path_148" data-name="Path 148" class="cls-14" d="M859.791,426.893l2.867-4.767s.437-.032.219.321S859.791,426.893,859.791,426.893Z" transform="translate(-831.383 -245.544)"/>
            <path id="Path_149" data-name="Path 149" class="cls-14" d="M862.957,427.1l2.613-4.254s.4-.029.2.286S862.957,427.1,862.957,427.1Z" transform="translate(-831.327 -245.531)"/>
            <path id="Path_150" data-name="Path 150" class="cls-14" d="M865.023,427.472l2.339-3.774s.356-.025.178.253S865.023,427.472,865.023,427.472Z" transform="translate(-831.29 -245.516)"/>
          </g>
          <path id="Path_151" data-name="Path 151" class="cls-8" d="M836.571,264.607c-.12-1-.18-1.574-.18-1.574l.077.1A14.441,14.441,0,0,0,836.571,264.607Z" transform="translate(-824.923 -240.83)"/>
          <path id="Path_152" data-name="Path 152" class="cls-15" d="M862.045,243s12.38-.6,10.487,6.826c0,0,2.767-8.618,3.714.426s-9.977-2.9-9.977-2.9Z" transform="translate(-824.466 -241.188)"/>
          <path id="Path_153" data-name="Path 153" d="M836.079,271.222s14.389-3.274,16.72,2.186a61.893,61.893,0,0,1,3.2,9.214h2.913s-2.913-8.531-1.456-12.286,9.838,3.728,7.21,8.831c-3.824,7.423,2.694,20.178,2.694,20.178l5.826-5.8s13.692-19.111,10.779-27.984-9.031-21.5-10.779-15.7c0,0-16.9-15.7-27.674-4.779A212.319,212.319,0,0,0,825.124,270Z" transform="translate(-825.124 -241.219)"/>
        </g>
      </g>
      <g id="Food_Packet" data-name="Food Packet" transform="translate(315.185 261.385)">
        <g id="Group_8593" data-name="Group 8593" transform="translate(0)">
          <path id="Path_154" data-name="Path 154" class="cls-16" d="M773.024,445.884l-8.754.356c-.02-.2-.03-.356-.03-.438a.112.112,0,0,0-.031-.081.456.456,0,0,0-.243-.153,1.4,1.4,0,0,0-.346-.1c-.163-.041-.347-.061-.56-.092-.1-.01-.214-.031-.326-.041-.041,0-.081-.01-.132-.01-.193-3.817-.388-7.522-.57-10.921-.061-1.456-.143-2.86-.2-4.193-.142-3.135-.265-5.893-.387-8.1-.02-.366-.031-.713-.051-1.059-.01-.163-.021-.326-.03-.489-.051-.977-.1-1.812-.144-2.453a1.034,1.034,0,0,1-.009-.163c-.02-.214-.02-.4-.031-.56-.01-.193-.021-.356-.031-.488,0-.1-.01-.183-.01-.254-.01-.132-.01-.2-.01-.2l7.622-2.433,1.487,11.064Z" transform="translate(-737.142 -413.62)"/>
          <path id="Path_155" data-name="Path 155" class="cls-16" d="M762.016,434.046c.182,3.4.377,7.1.57,10.921h-.01C762.362,441.14,762.179,437.446,762.016,434.046Z" transform="translate(-737.126 -413.263)"/>
          <path id="Path_156" data-name="Path 156" class="cls-16" d="M764.159,445.169a.589.589,0,0,0-.243-.153A.456.456,0,0,1,764.159,445.169Z" transform="translate(-737.092 -413.067)"/>
          <path id="Path_157" data-name="Path 157" class="cls-16" d="M777.411,478.577,764.535,493.9c0,.01-.011.01-.011.02l-.07.071V494l-.733.865-1.048-31.736-.1-3.084-.031-.926-.113-3.45-.03-.865-.143-4.153v-.01l-.02-.692-.131-4-.02-.7c.183.01.356.02.519.041-.529-10.29-1.008-19.654-1.272-24.784l-.071-.041-.112-3.613c.009.132.02.3.031.488.01.163.01.346.031.56a1.034,1.034,0,0,0,.009.163c.042.641.093,1.476.143,2.453.285,5.13.813,14.494,1.374,24.784.925.081,1.506.224,1.506.458,0,.081.009.234.03.438l8.754-.356Z" transform="translate(-737.142 -413.569)"/>
          <path id="Path_158" data-name="Path 158" class="cls-17" d="M754.837,421.747l-.477,12.845-.407,10.8c-.672.031-1.293.071-1.833.1l-.172.01-.418.01-.173.01a.034.034,0,0,0-.02.01c-.335.031-.611.051-.825.061-1.139.071-3.449,1.038-6.1,2.26.112-1.232.2-2.433.284-3.593l2.281-15.166,1.963-13.089Z" transform="translate(-737.44 -413.585)"/>
          <path id="Path_159" data-name="Path 159" class="cls-17" d="M761.345,416.4l-5.659-.183-.275-.01-2.27-.031-1.17-.02s.07-.02.2-.051l-3.308-.1c1.272.02,2.423.041,3.472.061h.01c.2.01.407.01.6.01,1.435.031,2.635.071,3.664.1h.009C760.042,416.291,761.345,416.4,761.345,416.4Z" transform="translate(-737.361 -413.585)"/>
          <path id="Path_160" data-name="Path 160" class="cls-17" d="M765.352,491.707a6.481,6.481,0,0,1-.477,2.28V494c-.01.031-.02.051-.032.081a.272.272,0,0,1-.04.081c0,.01-.01.02-.02.031-.692,1.415-1.761,1.283-1.761,1.283s-18.066-.132-22.219-.519a6.665,6.665,0,0,1-1.394-.265c-2.515-.8-1.73-2.86-1.73-2.86l3.42-22.738v-.01l.234-1.608,2.931-19.512.559-3.715c-.081,1.16-.172,2.361-.284,3.593,2.646-1.221,4.957-2.188,6.1-2.26.214-.01.49-.031.824-.061a.034.034,0,0,1,.02-.01l.173-.01.418-.01.172-.01c.541-.031,1.161-.071,1.833-.1,2.5-.122,5.71-.234,7.939-.153.173,0,.336.01.489.02.183.01.356.02.519.041-.529-10.29-1.008-19.654-1.272-24.784l-.071-.041-.112-3.613c.009.132.02.3.031.488.01.163.01.346.03.56a1.034,1.034,0,0,0,.009.163c.042.641.093,1.476.144,2.453.285,5.13.813,14.494,1.374,24.784.02.315.041.631.061.957.051,1.109.112,2.229.173,3.349v.01c.009.163.02.316.03.478.072,1.384.143,2.779.215,4.163.019.2.03.4.04.59q.093,1.817.184,3.6c.009.193.02.4.031.59.051.957.1,1.914.153,2.86C764.824,476.827,765.454,490.058,765.352,491.707Z" transform="translate(-737.562 -413.569)"/>
          <path id="Path_161" data-name="Path 161" class="cls-18" d="M755.356,416.208l-2.27-.031-1.171-.02s.07-.02.2-.051h.011l.874.031Z" transform="translate(-737.306 -413.583)"/>
          <path id="Path_162" data-name="Path 162" class="cls-18" d="M761.329,420.5l-.071-.041-.112-3.613c.009.132.02.3.031.488.01.163.01.346.031.56a1.027,1.027,0,0,0,.009.163C761.248,418.7,761.289,419.523,761.329,420.5Z" transform="translate(-737.142 -413.569)"/>
          <path id="Path_163" data-name="Path 163" class="cls-18" d="M762.821,445.3c-.163-.02-.336-.031-.519-.041-.153-.01-.316-.02-.489-.02-2.229-.081-5.435.031-7.939.153l.407-10.8.477-12.845-5.893-5.741,3.308.1c-.132.031-.2.051-.2.051l1.17.02,2.27.031.275.01,5.659.183s0,.071.01.2c0,.071.01.153.01.254l.112,3.613.071.041C761.813,425.645,762.291,435.009,762.821,445.3Z" transform="translate(-737.361 -413.585)"/>
          <path id="Path_164" data-name="Path 164" class="cls-18" d="M765.095,491.211a4.549,4.549,0,0,1-.4,2.188c0,.01-.011.01-.011.02a1.312,1.312,0,0,1-.1.163.274.274,0,0,1-.04.081c0,.01-.01.02-.02.031a2.95,2.95,0,0,1-1.761,1.282l-10.789-.519.967-25.965v-.071l.031-.814.784-21.069.061-1.618v-.041c2.5-.122,5.71-.234,7.939-.153.173,0,.336.01.489.02.183.01.356.02.519.041.01.326.031.651.04.977.062,1.12.122,2.26.174,3.41v.01c.01.173.02.336.031.519q.107,2.061.214,4.153c.01.214.02.438.031.651.06,1.191.122,2.382.182,3.562l.032.662c.051.967.1,1.924.141,2.88C764.372,476.6,765.045,489.837,765.095,491.211Z" transform="translate(-737.305 -413.073)"/>
          <path id="Path_165" data-name="Path 165" class="cls-18" d="M768.967,414.013l-7.622,2.433s-1.3-.112-4.724-.224c1.4-.305,8.479-1.863,6.78-2.1-1.558-.214-8.347,1.344-10.657,1.893-.153.031-.285.071-.4.092h-.01c-1.048-.02-2.2-.041-3.472-.061,0,0,1.09-.254,2.78-.6C756.276,414.5,765.426,412.883,768.967,414.013Z" transform="translate(-737.361 -413.627)"/>
          <path id="Path_166" data-name="Path 166" class="cls-19" d="M756.621,416.213c3.421.112,4.724.224,4.724.224l-5.659-.183-.275-.01-2.352-.071-.874-.031h-.011l-3.308-.1c1.272.02,2.423.041,3.472.061h.01c.112-.02.244-.061.4-.092,2.309-.55,9.1-2.107,10.657-1.893C765.1,414.35,758.016,415.908,756.621,416.213Z" transform="translate(-737.361 -413.618)"/>
          <path id="Path_167" data-name="Path 167" class="cls-17" d="M756.566,416.213h-.009c-.143.031-.224.051-.224.051l-.7-.01-.275-.01-2.27-.031-1.171-.02s.07-.02.2-.051h.011c.041-.01.091-.02.153-.041h.01c.112-.02.244-.061.4-.092,2.31-.55,9.1-2.107,10.657-1.893C765.046,414.35,757.962,415.908,756.566,416.213Z" transform="translate(-737.306 -413.618)"/>
          <path id="Path_168" data-name="Path 168" class="cls-20" d="M771,431.627l2.3,9.1-1.039.3Z" transform="translate(-736.966 -413.306)"/>
        </g>
      </g>
      <g id="Person_in_Red" data-name="Person in Red" transform="translate(168.195 140.22)">
        <g id="Group_8595" data-name="Group 8595" transform="translate(0)">
          <ellipse id="Ellipse_27" data-name="Ellipse 27" class="cls-21" cx="11.434" cy="33.879" rx="11.434" ry="33.879" transform="translate(0 246.319) rotate(-73.811)"/>
          <g id="Group_8594" data-name="Group 8594" transform="translate(5.319)">
            <path id="Path_169" data-name="Path 169" class="cls-22" d="M745.906,444.125c-.081,1.16-.172,2.361-.284,3.593-.5,6.036-1.17,12.774-1.924,19.675-.051.519-.112,1.038-.173,1.557,0,0,.009,0,0,.01-.947,8.682-2.027,17.568-3.033,25.609-2.015,16.021-3.8,28.672-3.929,29.649v.01a.179.179,0,0,0-.01.051c-.01,0-.01.01-.021.02a32.433,32.433,0,0,1-4.539,2.911c-5.557,2.962-15.055,6.015-21.945-2.412-.784-.947-.518-1.038-.518-1.038v-.1l.009-.061.042-.947.478-10.87.243-5.69-6.8-14.759-2.005-4.346-10.036-21.792-1.639-3.552-11.859-25.761-1.18-2.555,5.455-3.634s.672-.081,1.893-.234a1.648,1.648,0,0,0,.213-.02c6.729-.8,28.184-3.328,43.849-4.774,1.088-.1,2.138-.193,3.164-.285.509-.041,1-.081,1.486-.122,6.4-.55,11.207-.8,12.541-.539.661.132,1.008,1.842,1.12,4.723C746.639,432.074,746.4,437.56,745.906,444.125Z" transform="translate(-596.975 -292.284)"/>
            <path id="Path_170" data-name="Path 170" class="cls-23" d="M706.983,357.428s-8.056,5.458-9.1,10.136-24.168-22.869-24.168-22.869l11.954-7.536Z" transform="translate(-597.029 -293.825)"/>
            <path id="Path_171" data-name="Path 171" class="cls-24" d="M685.72,345.137s.029.1.089.274A28.641,28.641,0,0,0,701.052,361.7l5.458-4.418Z" transform="translate(-596.816 -293.683)"/>
            <path id="Path_172" data-name="Path 172" class="cls-25" d="M711.384,306.331s13.387,34.774,10.9,46.476-16.523,6.846-25.973,3.159c-3.493-1.363-19.7-20.868-19.7-20.868s-7.268-15.334,6.544-23.7S704.7,299.164,711.384,306.331Z" transform="translate(-597.012 -294.442)"/>
            <path id="Path_173" data-name="Path 173" d="M681.3,334.279s8.576,7.276,7.8,9.1-8.317,7.536-9.356,7.8-12.214-8.836-17.671-13.773-6.756-13.514-2.858-16.632,12.214-14.552,10.914-18.191,3.9-6.237,7.537-6.237,29.365-3.118,29.884-1.039-1.819,4.418,1.04,5.458,9.1,2.858,5.977,4.678a53.356,53.356,0,0,1-10.655,4.677c-2.859.78-3.9-1.039-3.9,5.978s.259,16.112.259,17.67.261,6.237.261,6.237l-2.859-.259s-4.417-6.237-4.417-7.536-4.678-6.5-8.316-6.757S679.736,328.822,681.3,334.279Z" transform="translate(-597.328 -294.584)"/>
            <path id="Path_174" data-name="Path 174" class="cls-26" d="M701.755,369.967c.26.78,6.5,17.282,11.434,20.14S739.436,407,739.436,407s-8.836,16.372-8.446,18.711-33.653-9.875-33.653-9.875Z" transform="translate(-596.608 -293.24)"/>
            <path id="Path_175" data-name="Path 175" class="cls-27" d="M701.51,373.8l1.429,2.729s.867,19.706.477,23.345a77.208,77.208,0,0,1-2.946,12.257c-.346.607-2.079,3.856-2.079,3.856l-1.905-.261Z" transform="translate(-596.624 -293.172)"/>
            <path id="Path_176" data-name="Path 176" class="cls-28" d="M662.329,350.435S630.106,377.2,624.909,385s-13.254,41.059-17.152,48.6-11.953,28.586-8.575,36.9,2.6,10.655,13.514,8.575,7.275,3.119,17.671-6.756,17.151-15.853,21.829-15.853S680,437.751,684.419,432.034s17.151-11.174,18.45-27.286a287.267,287.267,0,0,0,.261-34.043l-1.04-5.977-4.613,1.949Z" transform="translate(-598.373 -293.588)"/>
            <path id="Path_177" data-name="Path 177" class="cls-29" d="M666.689,340.988s-7.016,4.937-6.756,8.836,30.4,18.711,38.981,41.32l-1.04-24.948,5.717,10.915-2.078-15.333s-1.819,1.559-3.119,2.858a24.526,24.526,0,0,0-2.078,2.339S675.005,343.067,666.689,340.988Z" transform="translate(-597.275 -293.757)"/>
            <path id="Path_178" data-name="Path 178" class="cls-27" d="M711.04,388.435s1.646,3.9-4.894,9.529C706.146,397.964,716.281,391.554,711.04,388.435Z" transform="translate(-596.452 -292.911)"/>
            <path id="Path_179" data-name="Path 179" class="cls-27" d="M639.856,394.013s-6.237,4.5-5.2,11.26,2.079,16.978,2.6,20.79.52,11.78,2.773,12.821,7.8,1.039,7.97,5.024,2.6,11.434,2.6,11.434,3.812.173,5.89-2.079-15.938-59.424-15.938-59.424Z" transform="translate(-597.728 -292.815)"/>
            <path id="Path_180" data-name="Path 180" class="cls-26" d="M654.352,374.194s-11.695,3.9-13.254,13.513a118.127,118.127,0,0,1-3.378,15.332s3.639,28.067,9.1,33,4.418,7.276,4.938,9.615,1.82,8.316,3.639,9.1-.26-3.119,1.3,3.119-2.338,9.1,2.6,10.394,12.214,3.378,17.671,2.859,14.812-1.3,14.812-1.3,1.559-16.891,3.9-21.309l-12.733-8.836s2.6-8.836,2.078-10.914-4.158-1.039-4.158-1.039l.259-42.359S672.283,369.775,654.352,374.194Z" transform="translate(-597.671 -293.179)"/>
            <path id="Path_181" data-name="Path 181" class="cls-24" d="M630.366,499.031l-6.886.91-3.248,8.576,14.683,8.835,10.135-5.327Z" transform="translate(-597.983 -290.939)"/>
            <path id="Path_182" data-name="Path 182" class="cls-30" d="M650.776,549.574c-12.6-.773-23.909-.387-25.466-4.031s-4.031-8.183-4.936-13.384-4.8-10.392-8.58-13.639-8.57-10.392-6.229-12.865a10.713,10.713,0,0,1,1.567-1.283c3.868-2.718,12.367-6.616,17.008-4.957,0,0-5.842,11.308,9.354,15.725s26.769,27.807,26.769,27.807l.01.051a4.356,4.356,0,0,1,.265.977C660.862,545.981,660.425,550.175,650.776,549.574Z" transform="translate(-598.255 -290.94)"/>
            <path id="Path_183" data-name="Path 183" class="cls-31" d="M631.507,514.52s7.421,17.009,9.312,17.823c8.9,3.833,10.871-2.318,10.871-2.318l-14.9-14.379S635.839,515.993,631.507,514.52Z" transform="translate(-597.782 -290.663)"/>
            <path id="Path_184" data-name="Path 184" class="cls-32" d="M650.267,454.6s61.329,6.757,76.921,18.711,9.529,27.027,3.812,30.838c-14.858,9.905-65.661,12.561-80.473,25.555,0,0-21.829-13.773-21.309-27.027l2.078-3.638a40.77,40.77,0,0,1-14.812-2.079c-7.016-2.6-13.513-16.372-11.694-21.569S650.267,454.6,650.267,454.6Z" transform="translate(-598.264 -291.731)"/>
            <path id="Path_185" data-name="Path 185" class="cls-22" d="M630.935,498.173s70.312-2.043,76.66-10a3.164,3.164,0,0,1-2.542-1.614C702.029,482.391,630.935,498.173,630.935,498.173Z" transform="translate(-597.792 -291.174)"/>
            <path id="Path_186" data-name="Path 186" d="M629.614,544.606s5.814-1.105,8.575-3.639c0,0-1.429,2.7-8.089,4.548l-.454-.78Z" transform="translate(-597.816 -290.192)"/>
            <path id="Path_187" data-name="Path 187" class="cls-31" d="M650.776,549.482c-12.6-.774-23.909-.387-25.466-4.031s-4.031-8.183-4.936-13.384-4.8-10.392-8.58-13.639-8.57-10.392-6.229-12.865a10.707,10.707,0,0,1,1.567-1.282l.417-.061s2.514,7.2,5.985,9.71,6.575,10.473,7.451,11.949,6.229,14.209,6.667,15.939,1.557,3.033,2.249,2.769.173,1.038.173,1.038l1.038-.427-.346.947.784-.244c.183-.478,1.293-1.018,5.72-.7,7.359.519,17.059,1.822,19.227.427a35.858,35.858,0,0,0,3.766-2.768l.01.051.265.977C660.862,545.889,660.425,550.082,650.776,549.482Z" transform="translate(-598.255 -290.847)"/>
            <path id="Path_188" data-name="Path 188" d="M627.858,542.946s8.771-1.331,11.207-5.458c0,0-1.169,4.9-10.687,6.27Z" transform="translate(-597.847 -290.254)"/>
            <path id="Path_189" data-name="Path 189" class="cls-23" d="M765.321,460.849c-.143.173-.3.356-.448.55-.061.071-.113.142-.174.214-.254.316-.509.662-.773,1.018-1.588,2.107-3.472,4.692-5.15,5.547a3.113,3.113,0,0,1-.427.193h-.041a1.831,1.831,0,0,1-.611.1c-.378,0-1.7.01-3.664.02-2.656.02-6.494.051-10.758.092h-1.344c-9.313.081-20.2.173-25.171.214h-.01c-.458,0-.855.01-1.2.01-.966.01-1.505.01-1.505.01L693.8,462.172h-.011l-.029-.01-2.128-.7-.8-.265,1.923-6.9.011-.041v-.01l.02-.092,1.943-6.911s36.469,6.677,41.5,4.428c2.6-1.17,5.924-2.84,8.875-4.2l.275-.122c2.646-1.221,4.957-2.188,6.1-2.26.214-.01.49-.031.824-.061a.586.586,0,0,0,.133-.01l.06-.01.418-.01.172-.01c.54-.031,1.161-.071,1.833-.1,2.5-.122,5.71-.234,7.939-.153.173,0,.336.01.488.02.183.01.356.02.519.041a.585.585,0,0,1,.132.01c.925.081,1.506.224,1.506.458,0,.081.009.234.03.438C765.768,448.126,767.234,458.61,765.321,460.849Z" transform="translate(-596.725 -291.908)"/>
            <path id="Path_190" data-name="Path 190" class="cls-33" d="M715.68,467.97s24.3-1.1,25.273-1.365,14.618,1.1,16.047.455,1.364.91,1.364.91l-42.683.584-1.364-.325Z" transform="translate(-596.306 -291.518)"/>
            <path id="Path_191" data-name="Path 191" class="cls-33" d="M764.912,456.715s-7.933,5.545-6.962,6.381S764.912,456.715,764.912,456.715Z" transform="translate(-595.53 -291.694)"/>
            <path id="Path_192" data-name="Path 192" class="cls-33" d="M764.828,452.627s-8.218,5.114-7.293,6S764.828,452.627,764.828,452.627Z" transform="translate(-595.537 -291.767)"/>
            <path id="Path_193" data-name="Path 193" class="cls-33" d="M764.609,448.343s-8.885,3.84-8.1,4.853S764.609,448.343,764.609,448.343Z" transform="translate(-595.555 -291.843)"/>
            <path id="Path_194" data-name="Path 194" class="cls-33" d="M758.355,444.776s-2.046.835-4.489,1.761c-3.1,1.2-6.85,2.555-7.756,2.555-1.588,0,4.844-3.858,5.2-4.071a.033.033,0,0,1,.02-.01l.591-.02.172-.01,1.833-.061Z" transform="translate(-595.744 -291.907)"/>
            <path id="Path_195" data-name="Path 195" class="cls-33" d="M751.978,415.546c-1.69.346-2.78.6-2.78.6l-1.963,13.089-1.679-.519-13.66-4.183-1.383-.427-.366-.112s2.942-6.758,7.45-15.858l.225.112v.01l.153.081.753.377Z" transform="translate(-596.024 -292.56)"/>
            <path id="Path_196" data-name="Path 196" class="cls-33" d="M751.971,416.159s.07-.02.2-.051l-3.308-.1c1.272.02,2.423.041,3.472.061h.01c.112-.02.244-.061.4-.092l.2.1.111.061.082.041Z" transform="translate(-595.69 -292.42)"/>
            <path id="Path_197" data-name="Path 197" class="cls-33" d="M764.262,445.693l-1.475.061-.154.01-.3.01-.234-.326-.509-.723c.173,0,.336.01.489.02.183.01.356.02.519.041v-.01c.051,0,.092.01.132.01v.01l.326.031c.213.031.4.051.56.092a1.4,1.4,0,0,1,.346.1.456.456,0,0,1,.243.153.112.112,0,0,1,.031.081C764.232,445.337,764.241,445.489,764.262,445.693Z" transform="translate(-595.463 -291.908)"/>
            <path id="Path_198" data-name="Path 198" class="cls-33" d="M776.156,445.558l-3.291.132-2.789-20.814c3.277,1.639,6.87,2.843,7.084,3.583.434,1.507.066,12.43.014,16.06A1.055,1.055,0,0,1,776.156,445.558Z" transform="translate(-595.312 -292.261)"/>
            <path id="Path_199" data-name="Path 199" class="cls-27" d="M738.721,406.35l-.13,2.425-1.126-.606Z" transform="translate(-595.893 -292.592)"/>
            <path id="Path_200" data-name="Path 200" class="cls-30" d="M708.228,520.139s5.662,16.717,27.892,2.425c.91-.584,30.579,12.907,32.051,14.726s-.261,8.056-1.732,8.229-63.756.954-64.881.693-.347-14.206,3.032-20.876S708.228,520.139,708.228,520.139Z" transform="translate(-596.542 -290.566)"/>
            <path id="Path_201" data-name="Path 201" class="cls-34" d="M776.444,518.776" transform="translate(-595.198 -290.587)"/>
            <path id="Path_202" data-name="Path 202" class="cls-31" d="M730.656,525.294s21.136,8.835,22.7,9.009,3.682-2.707,2.923-3.053-20.745-8.814-20.745-8.814S735.616,522.933,730.656,525.294Z" transform="translate(-596.015 -290.522)"/>
            <path id="Path_203" data-name="Path 203" class="cls-31" d="M701.422,545.2V540.52l66.657,2.079s-.434,2.122-1.646,2.555-64.491.434-64.491.434Z" transform="translate(-596.536 -290.2)"/>
            <path id="Path_204" data-name="Path 204" d="M707.981,520.015l1.055.26L709,521.9A4.3,4.3,0,0,1,707.981,520.015Z" transform="translate(-596.419 -290.565)"/>
          </g>
        </g>
      </g>
      <g id="Aged_person" data-name="Aged person" transform="translate(58.147 0)">
        <g id="Group_8597" data-name="Group 8597" transform="translate(0)">
          <g id="Group_8596" data-name="Group 8596">
            <path id="Path_205" data-name="Path 205" class="cls-35" d="M549.487,197.754s38.981,29.106,37.942,85.238S571.836,415.526,570.8,417.086s-6.757,8.316-32.224-3.119-34.3-19.75-36.9-20.79-17.151.52-16.632-12.474,1.04-51.974,11.954-76.922,9.355-61.329,16.112-75.362S541.691,197.235,549.487,197.754Z" transform="translate(-485.026 -156.091)"/>
            <path id="Path_206" data-name="Path 206" class="cls-35" d="M551.2,222.607s-11.087-1.732-16.977,7.97-9.01,20.79-9.01,26.333,4.159,24.255,5.2,30.838,2.078,22.522,11.087,25.987c0,0,23.562,11.088,32.917,11.781s31.877,0,37.074,1.039c0,0,5.891-13.86,8.317-17.672s-25.294-9.7-33.957-10.394-21.829-6.93-21.829-6.93,7.97-27.026,6.93-30.838-2.425-23.908-4.158-25.987S559.513,221.222,551.2,222.607Z" transform="translate(-484.31 -155.65)"/>
            <path id="Path_207" data-name="Path 207" class="cls-35" d="M553.213,202.566c5.588,6.562,12.409,11.889,19.4,26a1.525,1.525,0,0,0,1.917.781,41.2,41.2,0,0,1,9.086-2.593c3.811-.346,6.236,2.773,6.929,4.851s5.347-1.758,7.624-4.5c2.729-3.292,3.119-5.891,4.937-5.371,1.883.538,3.941,1.67,5.37,1.766a1.515,1.515,0,0,0,1.613-1.674c-.283-2.666.307-8.31.553-11.006.346-3.812.39-2.469,4.548-4.548,3.766-1.883,6.449-7.719,6.5-7.8a18.489,18.489,0,0,0,2.079-14.683c-1.69-6.236-16.285-23.042-30.145-18.191s-17.282,11.607-22.826,22c-3.97,7.443-11.847,10.8-16,12.107C553.684,200.058,552.458,201.678,553.213,202.566Z" transform="translate(-483.814 -156.679)"/>
            <path id="Path_208" data-name="Path 208" class="cls-35" d="M623.545,198.455c-1.568,3.9-3.643,2.6-7.022,3.9,0,0-2.341.254-3.379.254s-.519-3.115-1.293-5.71-3.9-1.048-5.2.519-1.557,3.115-1.557,6.494-1.3,1.557-5.976,1.3-1.047.254-2.086,1.038a4.8,4.8,0,0,1-4.937,0c-1.557-1.038-2.6-1.557-4.672-7.023s-3.125-4.936-8.581-5.191-3.113,6.494-5.2,10.911-2.6,2.076-9.873-.784-4.936-10.911-4.936-10.911,7.277-11.695,9.1-20.011a9.388,9.388,0,0,1,5.312-6.524c3.645-1.934,8.113-2.748,10.281-5.69,3.633-4.936,19.745-1.038,21.3-1.038s4.681,2.341,6.5,5.2,2.331,1.812,3.635.519,3.634,1.038,2.6,2.86,4.162,6.229,5.984,5.456a1.262,1.262,0,0,1,1.68.468c.763,1.008,1.313,3.247,1.954,6.809C628.217,187.015,625.1,194.557,623.545,198.455Z" transform="translate(-483.716 -156.79)"/>
            <path id="Path_209" data-name="Path 209" class="cls-36" d="M625.2,174.485c0,.031-.083.041-.224.041a1.262,1.262,0,0,0-1.68-.468c-1.822.774-7.022-3.644-5.984-5.456s-1.293-4.163-2.6-2.86-1.822,2.341-3.635-.519-4.946-5.2-6.5-5.2-17.671-3.9-21.3,1.038c-2.168,2.942-6.636,3.756-10.281,5.69-.243-.041-.377-.061-.377-.061s6.932-9.262,9.436-9.089,6.158-1.557,7.023-.346,4.936,1.557,7.8.947,4.326-1.812,8.49-.081,11,3.725,13.252,6.494,1.476,4.509,3.379,6.494S625.2,173.793,625.2,174.485Z" transform="translate(-483.464 -156.82)"/>
            <path id="Path_210" data-name="Path 210" class="cls-35" d="M514.333,396.222s-4.5,12.821,5.89,36.382S530.618,470.719,532,483.539s1.385,53.013,2.078,54.4,27.026,1.733,32.224,0,14.553-6.236,14.553-11.087-8.62-123.568-8.62-123.568-2.728,9.745-8.965,9.745-30.232-7.1-37.855-9.182A19.846,19.846,0,0,1,514.333,396.222Z" transform="translate(-484.52 -152.552)"/>
            <path id="Path_211" data-name="Path 211" class="cls-35" d="M535.607,535.688l-.866,10.394,64.622.52s.866-14.38-21.656-14.38h-.693s-7.8-.346-8.662,1.906S545.656,537.073,535.607,535.688Z" transform="translate(-484.139 -150.128)"/>
            <path id="Path_212" data-name="Path 212" class="cls-35" d="M617.425,308.18s14.812,4.158,16.372,7.666,3.638,10.784,3.768,13.253a14.155,14.155,0,0,1-1.049,5.1.7.7,0,0,1-.951.377,3.033,3.033,0,0,1-1.768-2.226c-.39-2.078-1.267-7.373-1.69-8.316-.286-.638-2.761-4.125-3.8-4.775s-2.047,5.619-2.176,6.074a37.775,37.775,0,0,1-1.559,4.678c-.309.438-1.949,1.3-4.418,1.039s-10.178-6.02-10.178-6.02Z" transform="translate(-482.798 -154.122)"/>
            <path id="Path_213" data-name="Path 213" class="cls-35" d="M601.694,321.83s-4.071,6.41-3.292,22l5.977-.26s1.04-17.931,4.937-21.309,14.813-6.237,19.751,7.016l4.417,221.41,8.316.26L636,328.934s-5.012-15.86-17.151-16.285C608.971,312.3,604.293,317.152,601.694,321.83Z" transform="translate(-483.006 -154.043)"/>
            <path id="Path_214" data-name="Path 214" class="cls-35" d="M632.7,537.2l9.355.065.13,10.46-10.59-.065V537.2Z" transform="translate(-482.413 -150.039)"/>
          </g>
          <path id="Path_215" data-name="Path 215" class="cls-35" d="M574.912,234.52l45.737,61.849,35.083,32.224s3.551,5.673-2.859,12.473c-4.064,4.313-42.878-18.191-49.635-25.467s-17.974-20.573-17.974-20.573S589.464,261.46,574.912,234.52Z" transform="translate(-483.423 -155.435)"/>
          <path id="Path_216" data-name="Path 216" class="cls-35" d="M655.015,327.967a16.307,16.307,0,0,1,3.768,4.417,45.325,45.325,0,0,0,8.056,8.836l-3.248,2.469-1.82,2.468s-3.9,2.079-10.265-6.756C651.507,339.4,655.146,337.323,655.015,327.967Z" transform="translate(-482.058 -153.769)"/>
        </g>
      </g>
    </g>
  </g>
</svg>
