<svg xmlns="http://www.w3.org/2000/svg" xmlns:xlink="http://www.w3.org/1999/xlink" width="588" height="534" viewBox="0 0 588 534">
  <defs>
    <style>
      .cls-1 {
        fill: #fff;
        stroke: #707070;
      }

      .cls-2 {
        clip-path: url(#clip-path);
      }

      .cls-3 {
        opacity: 0.6;
      }

      .cls-4 {
        fill: #ff8539;
      }

      .cls-5 {
        mix-blend-mode: screen;
        fill: url(#linear-gradient);
      }

      .cls-11, .cls-16, .cls-17, .cls-25, .cls-31, .cls-35, .cls-5, .cls-9 {
        isolation: isolate;
      }

      .cls-6 {
        fill: #ffb288;
      }

      .cls-6, .cls-7 {
        opacity: 0.7;
      }

      .cls-8, .cls-9 {
        fill: #6d1f00;
      }

      .cls-11, .cls-16, .cls-17, .cls-25, .cls-31, .cls-35, .cls-9 {
        mix-blend-mode: multiply;
      }

      .cls-10, .cls-11 {
        fill: #ad3500;
      }

      .cls-12 {
        fill: #6db273;
      }

      .cls-13 {
        fill: #2f5a5e;
      }

      .cls-14 {
        fill: #d1a97d;
      }

      .cls-15 {
        fill: #232323;
      }

      .cls-16 {
        fill: url(#linear-gradient-2);
      }

      .cls-17 {
        fill: url(#linear-gradient-3);
      }

      .cls-18 {
        fill: #37686d;
      }

      .cls-19 {
        fill: #e8c69a;
      }

      .cls-20 {
        fill: #111;
      }

      .cls-21 {
        fill: #2b2b2b;
      }

      .cls-22 {
        fill: #bc6155;
      }

      .cls-23 {
        fill: #fff200;
      }

      .cls-24 {
        fill: #c69161;
      }

      .cls-25 {
        fill: url(#linear-gradient-5);
      }

      .cls-26 {
        fill: #ad4a3d;
      }

      .cls-27 {
        fill: #d3a575;
      }

      .cls-28 {
        fill: #b7b323;
      }

      .cls-29 {
        fill: #46747c;
      }

      .cls-30 {
        fill: #b78646;
      }

      .cls-31 {
        fill: url(#linear-gradient-7);
      }

      .cls-32 {
        fill: #d3a562;
      }

      .cls-33 {
        fill: #69343d;
      }

      .cls-34 {
        fill: #111110;
      }

      .cls-35 {
        fill: url(#linear-gradient-9);
      }

      .cls-36 {
        fill: #4c1e28;
      }

      .cls-37 {
        fill: #9e641e;
      }

      .cls-38 {
        fill: #b77d29;
      }

      .cls-39 {
        fill: #161616;
      }

      .cls-40 {
        fill: #aac1b6;
      }

      .cls-41 {
        fill: #b8cfc5;
      }

      .cls-42 {
        fill: #93aa9f;
      }

      .cls-43 {
        fill: #fff7ee;
      }

      .cls-44 {
        fill: url(#linear-gradient-10);
      }

      .cls-45 {
        fill: #bc9369;
      }

      .cls-46 {
        fill: #93684c;
      }

      .cls-47 {
        fill: #9b7856;
      }
    </style>
    <clipPath id="clip-path">
      <rect id="Rectangle_3056" data-name="Rectangle 3056" class="cls-1" width="588" height="534" transform="translate(140 1979)"/>
    </clipPath>
    <linearGradient id="linear-gradient" x1="0.44" y1="0.996" x2="0.56" y2="0.004" gradientUnits="objectBoundingBox">
      <stop offset="0" stop-color="#2b2b2b"/>
      <stop offset="0.143" stop-color="#2f2f2f"/>
      <stop offset="0.298" stop-color="#3c3c3c"/>
      <stop offset="0.459" stop-color="#525252"/>
      <stop offset="0.624" stop-color="#707070"/>
      <stop offset="0.792" stop-color="#979797"/>
      <stop offset="0.96" stop-color="#c6c6c6"/>
      <stop offset="0.993" stop-color="#d1d1d1"/>
    </linearGradient>
    <linearGradient id="linear-gradient-2" y1="0.5" x2="1" y2="0.5" gradientUnits="objectBoundingBox">
      <stop offset="0"/>
      <stop offset="1" stop-color="#fff" stop-opacity="0"/>
    </linearGradient>
    <linearGradient id="linear-gradient-3" x1="-21.591" y1="0.5" x2="-20.591" y2="0.5" xlink:href="#linear-gradient-2"/>
    <linearGradient id="linear-gradient-5" x1="-11.538" y1="0.5" x2="-10.538" y2="0.5" xlink:href="#linear-gradient-2"/>
    <linearGradient id="linear-gradient-7" x1="14.885" y1="0.5" x2="15.885" y2="0.5" xlink:href="#linear-gradient-2"/>
    <linearGradient id="linear-gradient-9" x1="3.655" y1="0.5" x2="4.655" y2="0.5" xlink:href="#linear-gradient-2"/>
    <linearGradient id="linear-gradient-10" x1="0.44" y1="2.293" x2="0.555" y2="-0.751" gradientUnits="objectBoundingBox">
      <stop offset="0" stop-color="#999"/>
      <stop offset="0.244" stop-color="#c3c3c3"/>
      <stop offset="0.475" stop-color="#e3e3e3"/>
      <stop offset="0.667" stop-color="#f7f7f7"/>
      <stop offset="0.797" stop-color="#fff"/>
    </linearGradient>
  </defs>
  <g id="Mask_Group_4" data-name="Mask Group 4" class="cls-2" transform="translate(-140 -1979)">
    <g id="Group_8590" data-name="Group 8590" transform="translate(-55.156 1991.689)">
      <g id="Sun" transform="translate(287.407 73.491)">
        <g id="Group_8574" data-name="Group 8574" class="cls-3">
          <circle id="Ellipse_18" data-name="Ellipse 18" class="cls-4" cx="149.605" cy="149.605" r="149.605"/>
          <circle id="Ellipse_19" data-name="Ellipse 19" class="cls-5" cx="149.605" cy="149.605" r="149.605"/>
        </g>
      </g>
      <g id="Clouds" transform="translate(195.156 107.304)">
        <path id="Path_43" data-name="Path 43" class="cls-6" d="M813.76,132.272c-21.4-3.652-49.671,21.866-54.035,48.113-.1.58-2.008,12.687,1.48,21.466,20.266,50.995,240.783,35.015,243.528,7.4,1.542-15.509-64.367-47.305-105.849-28.868-12.3,5.465-16.232,12.582-26.647,11.843C844.354,190.251,841.981,137.087,813.76,132.272Z" transform="translate(-432.759 -131.922)"/>
        <path id="Path_44" data-name="Path 44" class="cls-6" d="M459.7,192.2c-2.507-17.434-27.167-28.362-47.28-29.254-3.9-.173-16.13-.715-26.595,4.664-14.57,7.488-7.971,17.326-23.049,27.558-11.72,7.953-22.367,6.529-27.186,14.839-1.955,3.371-3.778,9.77.591,13.143,6.354,4.906,18.788-2,39.007,2.12,7.913,1.613,7.561,2.988,15.366,4.239a85.163,85.163,0,0,0,29.55-1.272C436.12,224.429,462.472,211.476,459.7,192.2Z" transform="translate(-253.439 -144.952)"/>
        <path id="Path_45" data-name="Path 45" class="cls-6" d="M307.616,349.706c-10.616-5.2-36.263,1-44.38,11.364-4.186,5.346-.756,8.028-5.91,13.786-1.965,2.195-5.762,5.491-26,12.211-22.96,7.622-31.56,7.857-34.869,13.393a9.4,9.4,0,0,0,2.364,12.211c10.58,8.443,34.838-4.083,69.147.788,26.83,3.809,28.643,13.833,46.689,13,31.4-1.452,58.141-33.3,49.053-41.753-7.095-6.6-32.658,4.179-46.1-4.727C304.67,371.4,319.4,355.483,307.616,349.706Z" transform="translate(-195.156 -222.886)"/>
      </g>
      <g id="KIds_Silhouette" data-name="KIds Silhouette" transform="translate(357.314 231.014)">
        <g id="Group_8576" data-name="Group 8576" class="cls-7" transform="translate(0)">
          <g id="Group_8575" data-name="Group 8575" transform="translate(0 57.058)">
            <path id="Path_46" data-name="Path 46" class="cls-8" d="M573.182,495.4s-.864,2.562-6.621,2.882a15,15,0,0,1-10.652-3.842c-1.152-.961-31.668,1.6-31.668,1.6s-30.381-1.921-31.532-.961a15,15,0,0,1-10.652,3.842c-5.757-.321-6.621-2.882-6.621-2.882s-.863,1.921,3.742-18.892,7.2-21.773,7.2-21.773c18.425-10.246,24.47-10.246,25.326-10.438s12.6,4.659,12.6,4.659,11.76-5.488,12.615-5.3,6.9.192,25.322,10.438c0,0,2.591.961,7.2,21.774S573.182,495.4,573.182,495.4Z" transform="translate(-475.372 -444.296)"/>
          </g>
          <path id="Path_47" data-name="Path 47" class="cls-8" d="M566.534,446.124c0,6.084-6.7,11.527-16.651,11.527-12.487,0-18.571-5.063-18.571-9.926,0-5.763,9.552-6.724,18.571-6.724S566.534,441.642,566.534,446.124Z" transform="translate(-498.94 -385.85)"/>
          <ellipse id="Ellipse_20" data-name="Ellipse 20" class="cls-8" cx="15.53" cy="8.805" rx="15.53" ry="8.805" transform="translate(34.613 52.269)"/>
          <path id="Path_48" data-name="Path 48" class="cls-8" d="M596.646,392.868s1.542,18.285-2.816,23.256S596.646,392.868,596.646,392.868Z" transform="translate(-524.687 -365.571)"/>
          <path id="Path_49" data-name="Path 49" class="cls-9" d="M614.517,486.526l-.384,25.543h0a14.4,14.4,0,0,0,10.714,4.018l.176-.009-6.491-24.647Z" transform="translate(-533.834 -405.03)"/>
          <path id="Path_50" data-name="Path 50" class="cls-9" d="M505.057,486.526l-4.143,26.069h0a8.411,8.411,0,0,1-5.315,3.441l-1.139.218,6.584-24.822Z" transform="translate(-483.414 -405.03)"/>
          <path id="Path_51" data-name="Path 51" class="cls-8" d="M621.894,462.342s-3.955.26-4.936,5.165c0,0,2.563-4.146,5.356-4.764Z" transform="translate(-535.024 -394.841)"/>
          <path id="Path_52" data-name="Path 52" class="cls-8" d="M568.016,395.039c-.442,2.67-1.745,4.684-2.917,4.518a24.929,24.929,0,0,1-.675,6.484c-1.322,3.58-7.048,10.772-9.936,14.153-2.625,3.07-3.875,3.912-5.87,4.875a7.734,7.734,0,0,1-3.924.981,8.28,8.28,0,0,1-3.679-.9,19.06,19.06,0,0,1-6.747-4.9c-3.051-3.369-9.209-10.791-9.894-14.207a58.807,58.807,0,0,1-.644-7.015s-.01,0-.013,0c-1.207.2-2.552-1.863-3.007-4.611s.151-5.139,1.358-5.338c.772-.128,1.6.67,2.213,1.976.5-4.585,1.12-9.919,1.12-9.919,8.22-4.6,17.115-4.316,18.485-4.316h1.025c1.37,0,10.269-.282,18.488,4.316,0,0,.679,5.792,1.178,10.5.6-1.21,1.38-1.937,2.11-1.815C567.866,390.012,568.461,392.352,568.016,395.039Z" transform="translate(-494.409 -358.808)"/>
          <path id="Path_53" data-name="Path 53" class="cls-8" d="M560.035,386.455c-.326,4.057-1.437,4.108-1.437,4.108V378.994s-2.374-15.585-34.479-10.725a2.257,2.257,0,0,0-1.91,2.349l.825,16.2s-.832.3-1.153-2.082-1.559-7.787-1.838-9.026c-.227-1.009-.646-5.091-.794-6.59q-2.181.432-4.521.98a2.443,2.443,0,0,1-2.308-4.082c9.363-9.571,27.988-26.1,38.462-18.284,13.4,10,4.668,14.134,3.413,14.652,1.067-.388,7.781-2.5,8.357,5.562C563.282,376.7,560.365,382.395,560.035,386.455Z" transform="translate(-490.683 -345.697)"/>
          <path id="Path_54" data-name="Path 54" class="cls-8" d="M493.86,463.893s3.955.26,4.937,5.165c0,0-2.564-4.146-5.356-4.764Z" transform="translate(-482.985 -395.494)"/>
        </g>
        <g id="Group_8578" data-name="Group 8578" class="cls-7" transform="translate(115.757 0.39)">
          <g id="Group_8577" data-name="Group 8577" transform="translate(0 63.978)">
            <path id="Path_55" data-name="Path 55" class="cls-10" d="M785.078,514.234s-.969,2.873-7.425,3.231a16.825,16.825,0,0,1-11.944-4.308c-1.291-1.077-35.508,1.8-35.508,1.8s-34.065-2.154-35.356-1.077a16.825,16.825,0,0,1-11.944,4.308c-6.456-.359-7.425-3.231-7.425-3.231s-.968,2.154,4.2-21.182,8.07-24.414,8.07-24.414c20.659-11.489,27.438-11.489,28.4-11.7s14.132,5.224,14.132,5.224,13.186-6.154,14.145-5.942,7.734.215,28.393,11.7c0,0,2.905,1.077,8.07,24.414S785.078,514.234,785.078,514.234Z" transform="translate(-675.406 -456.928)"/>
          </g>
          <path id="Path_56" data-name="Path 56" class="cls-10" d="M777.623,458.978c0,6.821-7.516,12.925-18.67,12.925-14,0-20.823-5.678-20.823-11.13,0-6.463,10.711-7.54,20.823-7.54S777.623,453.951,777.623,458.978Z" transform="translate(-701.832 -391.393)"/>
          <ellipse id="Ellipse_21" data-name="Ellipse 21" class="cls-10" cx="17.413" cy="9.873" rx="17.413" ry="9.873" transform="translate(38.811 58.608)"/>
          <path id="Path_57" data-name="Path 57" class="cls-10" d="M811.387,399.263s1.729,20.5-3.158,26.076S811.387,399.263,811.387,399.263Z" transform="translate(-730.702 -368.655)"/>
          <path id="Path_58" data-name="Path 58" class="cls-11" d="M831.426,504.279l-.431,28.64h0a16.151,16.151,0,0,0,12.013,4.505l.2-.01-7.278-27.636Z" transform="translate(-740.957 -412.9)"/>
          <path id="Path_59" data-name="Path 59" class="cls-11" d="M708.691,504.279l-4.646,29.23h0a9.43,9.43,0,0,1-5.959,3.858l-1.278.244,7.382-27.833Z" transform="translate(-684.422 -412.9)"/>
          <path id="Path_60" data-name="Path 60" class="cls-10" d="M839.7,477.163s-4.435.292-5.535,5.792c0,0,2.874-4.649,6.005-5.342Z" transform="translate(-742.291 -401.475)"/>
          <path id="Path_61" data-name="Path 61" class="cls-10" d="M779.285,401.7c-.5,2.994-1.957,5.252-3.271,5.066-.032,2.434-.176,5.7-.758,7.27-1.483,4.014-7.9,12.078-11.14,15.869-2.944,3.443-4.345,4.386-6.582,5.467a8.674,8.674,0,0,1-4.4,1.1,9.285,9.285,0,0,1-4.125-1.009,21.374,21.374,0,0,1-7.566-5.5c-3.421-3.777-10.326-12.1-11.094-15.93a65.872,65.872,0,0,1-.722-7.866.021.021,0,0,1-.014,0c-1.354.226-2.862-2.09-3.371-5.17s.169-5.763,1.523-5.985c.865-.144,1.791.75,2.481,2.215.556-5.142,1.256-11.123,1.256-11.123,9.216-5.156,19.19-4.84,20.727-4.84h1.149c1.536,0,11.514-.316,20.73,4.84,0,0,.761,6.495,1.321,11.769.668-1.357,1.547-2.172,2.366-2.035C779.116,396.06,779.784,398.684,779.285,401.7Z" transform="translate(-696.752 -361.072)"/>
          <path id="Path_62" data-name="Path 62" class="cls-10" d="M770.336,392.071c-.366,4.549-1.612,4.606-1.612,4.606V383.706s-2.661-17.475-38.66-12.026a2.532,2.532,0,0,0-2.142,2.635l.925,18.162s-.933.341-1.292-2.333-1.749-8.732-2.061-10.121c-.255-1.131-.726-5.709-.891-7.389q-2.445.484-5.069,1.1a2.739,2.739,0,0,1-2.588-4.577c10.5-10.731,31.382-29.261,43.126-20.5,15.029,11.213,5.235,15.847,3.827,16.43,1.195-.435,8.724-2.8,9.37,6.236C773.977,381.139,770.706,387.519,770.336,392.071Z" transform="translate(-692.574 -346.371)"/>
          <path id="Path_63" data-name="Path 63" class="cls-10" d="M696.136,478.9s4.435.292,5.535,5.792c0,0-2.874-4.649-6.005-5.341Z" transform="translate(-683.942 -402.208)"/>
        </g>
      </g>
      <g id="Kid_Green" data-name="Kid Green" transform="translate(556.397 259.683)">
        <g id="Group_8580" data-name="Group 8580">
          <g id="Group_8579" data-name="Group 8579" transform="translate(0 65.167)">
            <path id="Path_64" data-name="Path 64" class="cls-12" d="M941.61,571.71s-1.079,3.2-8.273,3.6a18.75,18.75,0,0,1-13.31-4.8c-1.438-1.2-39.568,2-39.568,2s-37.96-2.4-39.4-1.2a18.743,18.743,0,0,1-13.309,4.8c-7.194-.4-8.274-3.6-8.274-3.6s-1.079,2.4,4.676-23.605,8.993-27.206,8.993-27.206c23.022-12.8,30.575-12.8,31.644-13.042s15.748,5.821,15.748,5.821,14.694-6.858,15.763-6.621,8.618.24,31.64,13.043c0,0,3.237,1.2,8.993,27.205S941.61,571.71,941.61,571.71Z" transform="translate(-819.396 -507.851)"/>
          </g>
          <path id="Path_65" data-name="Path 65" class="cls-13" d="M933.3,510.134c0,7.6-8.376,14.4-20.8,14.4-15.6,0-23.2-6.326-23.2-12.4,0-7.2,11.935-8.4,23.2-8.4S933.3,504.533,933.3,510.134Z" transform="translate(-848.845 -440.948)"/>
          <ellipse id="Ellipse_22" data-name="Ellipse 22" class="cls-14" cx="19.404" cy="11.002" rx="19.404" ry="11.002" transform="translate(43.249 59.184)"/>
          <path id="Path_66" data-name="Path 66" class="cls-15" d="M969.887,443.592s2.867,22.847-2.579,29.058S969.887,443.592,969.887,443.592Z" transform="translate(-880.915 -415.61)"/>
          <path id="Path_67" data-name="Path 67" class="cls-16" d="M993.258,560.617l-.48,31.916h0a18,18,0,0,0,13.387,5.02l.22-.011-8.11-30.8Z" transform="translate(-892.444 -464.914)"/>
          <path id="Path_68" data-name="Path 68" class="cls-17" d="M856.488,560.617l-5.177,32.573h0a10.512,10.512,0,0,1-6.642,4.3l-1.424.272,8.227-31.015Z" transform="translate(-829.444 -464.914)"/>
          <path id="Path_69" data-name="Path 69" class="cls-18" d="M1002.476,530.4s-4.943.325-6.168,6.454c0,0,3.2-5.18,6.692-5.953Z" transform="translate(-893.931 -452.184)"/>
          <path id="Path_70" data-name="Path 70" class="cls-19" d="M935.155,446.3c-.553,3.337-2.18,5.853-3.645,5.645-.036,2.712-.2,6.353-.844,8.1-1.652,4.473-8.806,13.459-12.415,17.684-3.281,3.837-4.842,4.888-7.334,6.092a9.66,9.66,0,0,1-4.9,1.226,10.343,10.343,0,0,1-4.6-1.123,23.815,23.815,0,0,1-8.431-6.127c-3.813-4.209-11.507-13.483-12.362-17.752a73.2,73.2,0,0,1-.8-8.766.024.024,0,0,1-.016,0c-1.508.252-3.189-2.329-3.757-5.761s.188-6.422,1.7-6.67c.964-.16,2,.836,2.764,2.469.62-5.729,1.4-12.394,1.4-12.394,10.27-5.745,21.384-5.393,23.1-5.393h1.281c1.712,0,12.831-.352,23.1,5.393,0,0,.848,7.237,1.472,13.115.744-1.513,1.724-2.421,2.637-2.268C934.967,440.022,935.711,442.947,935.155,446.3Z" transform="translate(-843.184 -407.16)"/>
          <path id="Path_71" data-name="Path 71" class="cls-15" d="M925.183,440.038c-.408,5.069-1.8,5.133-1.8,5.133V430.716s-2.966-19.473-43.082-13.4a2.821,2.821,0,0,0-2.387,2.936l1.031,20.24s-1.04.38-1.44-2.6-1.948-9.73-2.3-11.279c-.284-1.26-.808-6.362-.993-8.234q-2.725.54-5.649,1.224a3.052,3.052,0,0,1-2.885-5.1c11.7-11.959,23.707-25.709,36.794-15.947,16.747,12.494,26.391,6.592,24.822,7.24,1.332-.484,1.469,8.967,1.15,11.119C926.844,427.766,925.595,434.965,925.183,440.038Z" transform="translate(-838.528 -395.238)"/>
          <path id="Path_72" data-name="Path 72" class="cls-18" d="M842.5,532.337s4.942.325,6.168,6.454c0,0-3.2-5.18-6.691-5.952Z" transform="translate(-828.909 -453)"/>
        </g>
      </g>
      <g id="Kid_Pink" data-name="Kid Pink" transform="translate(494.059 239.774)">
        <g id="Group_8582" data-name="Group 8582">
          <circle id="Ellipse_23" data-name="Ellipse 23" class="cls-20" cx="10.196" cy="10.196" r="10.196" transform="translate(64.219 1.532)"/>
          <path id="Path_73" data-name="Path 73" class="cls-21" d="M843.039,371.03a9.026,9.026,0,0,1-.043.908,10.193,10.193,0,0,0-20.306,0,9.063,9.063,0,0,1-.043-.908,10.2,10.2,0,0,1,20.392,0Z" transform="translate(-758.429 -360.836)"/>
          <g id="Group_8581" data-name="Group 8581" transform="translate(0 87.09)">
            <path id="Path_74" data-name="Path 74" class="cls-22" d="M843.12,580.014s-1.16,3.443-8.9,3.873a20.161,20.161,0,0,1-14.315-5.164c-1.547-1.291-42.557,2.151-42.557,2.151s-40.828-2.582-42.376-1.29a20.168,20.168,0,0,1-14.315,5.164c-7.738-.431-8.9-3.873-8.9-3.873s-1.161,2.582,5.029-25.388,9.672-29.261,9.672-29.261c24.761-13.77,32.886-13.77,34.034-14.028s16.938,6.261,16.938,6.261,15.8-7.375,16.953-7.121,9.27.258,34.03,14.028c0,0,3.482,1.291,9.672,29.261S843.12,580.014,843.12,580.014Z" transform="translate(-711.675 -511.331)"/>
          </g>
          <path id="Path_75" data-name="Path 75" class="cls-23" d="M834.186,513.788c0,8.176-9.008,15.491-22.376,15.491-16.782,0-24.958-6.8-24.958-13.339,0-7.746,12.838-9.036,24.958-9.036S834.186,507.763,834.186,513.788Z" transform="translate(-743.348 -422.376)"/>
          <ellipse id="Ellipse_24" data-name="Ellipse 24" class="cls-24" cx="20.87" cy="11.833" rx="20.87" ry="11.833" transform="translate(46.516 80.654)"/>
          <path id="Path_76" data-name="Path 76" class="cls-15" d="M874.653,442.218s2.073,24.573-3.785,31.253S874.653,442.218,874.653,442.218Z" transform="translate(-777.949 -395.123)"/>
          <path id="Path_77" data-name="Path 77" class="cls-16" d="M898.67,568.083l-.516,34.327h0a19.354,19.354,0,0,0,14.4,5.4l.237-.012-8.723-33.122Z" transform="translate(-790.241 -448.152)"/>
          <path id="Path_78" data-name="Path 78" class="cls-25" d="M751.568,568.083,746,603.117h0a11.3,11.3,0,0,1-7.143,4.624l-1.532.292,8.848-33.359Z" transform="translate(-722.481 -448.152)"/>
          <path id="Path_79" data-name="Path 79" class="cls-26" d="M908.584,535.583s-5.315.349-6.634,6.942c0,0,3.445-5.572,7.2-6.4Z" transform="translate(-791.84 -434.459)"/>
          <path id="Path_80" data-name="Path 80" class="cls-27" d="M836.178,445.135c-.594,3.589-2.345,6.295-3.92,6.072-.039,2.917-.211,6.833-.908,8.713-1.777,4.811-8.566,13.176-12.684,17.507-2.922,3.073-4.516,4.308-7.2,5.6a23.346,23.346,0,0,1-6.824,1.946s-4.548-.465-6.992-1.747a31.673,31.673,0,0,1-7.278-5.72c-4.268-4.369-11.927-13-12.848-17.589a78.839,78.839,0,0,1-.865-9.428.025.025,0,0,1-.017,0c-1.622.271-3.43-2.5-4.04-6.2s.2-6.907,1.824-7.173c1.037-.172,2.148.9,2.974,2.655.667-6.162,1.506-13.331,1.506-13.331,11.046-6.179,23-5.8,24.842-5.8h1.377c1.842,0,13.8-.378,24.846,5.8,0,0,.913,7.785,1.584,14.105.8-1.627,1.854-2.6,2.836-2.44C835.976,438.378,836.776,441.524,836.178,445.135Z" transform="translate(-737.259 -386.034)"/>
          <path id="Path_81" data-name="Path 81" class="cls-28" d="M736.521,537.667s5.315.349,6.634,6.941c0,0-3.445-5.572-7.2-6.4Z" transform="translate(-721.905 -435.337)"/>
          <path id="Path_82" data-name="Path 82" class="cls-15" d="M836.919,408.891a43.1,43.1,0,0,1-7.535,17.2c-1.294-22.772-17.714-21.78-31.934-21.094-17.217.83-18.168,7.073-20.362,24.463-1.274-3.016-7.757-6.223-6.756-22.266,1.152-18.457,17.007-28.945,34.955-28.945S841.191,388.862,836.919,408.891Z" transform="translate(-736.343 -368.172)"/>
          <path id="Path_83" data-name="Path 83" class="cls-15" d="M831.629,422.959s2.121,12.383,25.671,17.21c0,0-17.232-6.682-21.07-18.675Z" transform="translate(-762.213 -386.392)"/>
          <path id="Path_84" data-name="Path 84" class="cls-15" d="M843.461,423.789s.143,6.348,12.492,9.1c0,0-8.59-5.226-10.058-9.879Z" transform="translate(-767.198 -387.032)"/>
        </g>
      </g>
      <g id="Kid_Blue" data-name="Kid Blue" transform="translate(285.268 220.995)">
        <g id="Group_8584" data-name="Group 8584" transform="translate(0 0)">
          <g id="Group_8583" data-name="Group 8583" transform="translate(0 89.033)">
            <path id="Path_85" data-name="Path 85" class="cls-29" d="M503.5,561.986s-1.348,4-10.332,4.5a23.412,23.412,0,0,1-16.621-6c-1.8-1.5-49.413,2.5-49.413,2.5s-47.406-3-49.2-1.5a23.411,23.411,0,0,1-16.621,6c-8.984-.5-10.332-4.5-10.332-4.5s-1.348,3,5.84-29.478,11.231-33.975,11.231-33.975c28.75-15.988,38.183-15.988,39.517-16.288s19.666,7.27,19.666,7.27,18.351-8.564,19.685-8.269,10.763.3,39.513,16.288c0,0,4.043,1.5,11.231,33.975S503.5,561.986,503.5,561.986Z" transform="translate(-350.874 -482.237)"/>
          </g>
          <path id="Path_86" data-name="Path 86" class="cls-13" d="M493.121,485.089c0,9.493-10.46,17.987-25.981,17.987-19.486,0-28.978-7.9-28.978-15.489,0-8.993,14.906-10.492,28.978-10.492S493.121,478.094,493.121,485.089Z" transform="translate(-387.649 -391.038)"/>
          <ellipse id="Ellipse_25" data-name="Ellipse 25" class="cls-30" cx="24.232" cy="13.74" rx="24.232" ry="13.74" transform="translate(54.01 81.56)"/>
          <path id="Path_87" data-name="Path 87" class="cls-15" d="M540.107,401.99s2.407,28.531-4.395,36.288S540.107,401.99,540.107,401.99Z" transform="translate(-427.825 -359.395)"/>
          <path id="Path_88" data-name="Path 88" class="cls-16" d="M567.994,548.131l-.6,39.857h0a22.472,22.472,0,0,0,16.717,6.27l.274-.014-10.128-38.458Z" transform="translate(-442.097 -420.966)"/>
          <path id="Path_89" data-name="Path 89" class="cls-31" d="M397.194,548.131l-6.466,40.678h0a13.125,13.125,0,0,1-8.293,5.369l-1.779.34,10.273-38.733Z" transform="translate(-363.421 -420.966)"/>
          <path id="Path_90" data-name="Path 90" class="cls-18" d="M579.505,510.4s-6.172.406-7.7,8.06c0,0,4-6.469,8.357-7.433Z" transform="translate(-443.954 -405.068)"/>
          <path id="Path_91" data-name="Path 91" class="cls-32" d="M495.434,405.376c-.689,4.167-2.723,7.309-4.551,7.05-.045,3.388-.245,7.934-1.054,10.118-2.063,5.585-11,16.807-15.5,22.083-4.1,4.792-6.047,6.1-9.16,7.608-3.784,1.829-6.123,1.531-6.123,1.531a12.917,12.917,0,0,1-5.74-1.4c-2.613-1.369-5.922-2.569-10.529-7.651-4.761-5.256-14.369-16.838-15.439-22.168a91.564,91.564,0,0,1-1-10.947.03.03,0,0,1-.02.005c-1.884.315-3.982-2.908-4.691-7.195s.235-8.019,2.119-8.329c1.2-.2,2.493,1.045,3.452,3.083.774-7.154,1.749-15.478,1.749-15.478,12.825-7.175,26.705-6.735,28.844-6.735h1.6c2.138,0,16.023-.439,28.848,6.735,0,0,1.06,9.038,1.839,16.377.929-1.888,2.153-3.022,3.292-2.833C495.2,397.532,496.129,401.184,495.434,405.376Z" transform="translate(-380.579 -348.842)"/>
          <path id="Path_92" data-name="Path 92" class="cls-15" d="M482.98,391.981c-.509,6.33-2.243,6.41-2.243,6.41V380.34s-3.7-24.318-53.8-16.735a3.523,3.523,0,0,0-2.981,3.666l1.288,25.275s-1.3.475-1.8-3.248-2.433-12.151-2.867-14.085c-.355-1.574-1.009-7.944-1.24-10.282q-3.4.674-7.055,1.529a3.812,3.812,0,0,1-3.6-6.371c14.61-14.934,43.673-40.719,60.016-28.529,20.914,15.6,7.285,22.054,5.326,22.863,1.664-.6,12.141-3.9,13.04,8.679C488.047,376.768,483.5,385.646,482.98,391.981Z" transform="translate(-374.765 -328.385)"/>
          <path id="Path_93" data-name="Path 93" class="cls-18" d="M379.722,512.816s6.172.406,7.7,8.06c0,0-4-6.469-8.357-7.434Z" transform="translate(-362.752 -406.088)"/>
        </g>
      </g>
      <g id="Torso" transform="translate(369.312 299.241)">
        <g id="Group_8585" data-name="Group 8585" transform="translate(0 3.447)">
          <path id="Path_94" data-name="Path 94" class="cls-33" d="M672.878,561.92s-1.561,4.63-11.967,5.208-17.17-5.208-19.251-6.944-57.232,2.893-57.232,2.893-54.907-3.472-56.988-1.736-8.845,7.523-19.251,6.944-11.967-5.208-11.967-5.208-1.561,3.472,6.764-34.143,13.007-39.351,13.007-39.351c33.3-18.518,44.225-18.518,45.771-18.865s22.778,8.42,22.778,8.42,21.254-9.919,22.8-9.577,12.466.347,45.765,18.865c0,0,4.683,1.736,13.008,39.351S672.878,561.92,672.878,561.92Z" transform="translate(-496.106 -469.553)"/>
        </g>
        <path id="Path_95" data-name="Path 95" class="cls-34" d="M660.862,472.856c0,11-12.115,20.833-30.092,20.833-22.569,0-33.564-9.15-33.564-17.939,0-10.416,17.265-12.152,33.564-12.152S660.862,464.754,660.862,472.856Z" transform="translate(-538.701 -463.597)"/>
        <path id="Path_96" data-name="Path 96" class="cls-16" d="M747.582,545.874l-.694,46.164h0a26.03,26.03,0,0,0,19.363,7.261l.318-.016-11.731-44.545Z" transform="translate(-601.764 -498.261)"/>
        <path id="Path_97" data-name="Path 97" class="cls-35" d="M549.756,545.874l-7.488,47.114h0a15.2,15.2,0,0,1-9.606,6.219l-2.06.393,11.9-44.862Z" transform="translate(-510.639 -498.261)"/>
        <path id="Path_98" data-name="Path 98" class="cls-36" d="M760.915,502.168s-7.148.47-8.921,9.335c0,0,4.632-7.493,9.679-8.61Z" transform="translate(-603.915 -479.847)"/>
        <path id="Path_99" data-name="Path 99" class="cls-36" d="M529.212,505.254s7.149.47,8.922,9.335c0,0-4.632-7.493-9.679-8.61Z" transform="translate(-509.735 -481.148)"/>
      </g>
      <g id="Neck" transform="translate(431.869 294.033)">
        <ellipse id="Ellipse_26" data-name="Ellipse 26" class="cls-37" cx="28.066" cy="15.914" rx="28.066" ry="15.914" transform="translate(0)"/>
      </g>
      <g id="Layer_9" data-name="Layer 9" transform="translate(416.57 232.113)">
        <path id="Path_100" data-name="Path 100" class="cls-38" d="M663.541,380.53c-.8,4.826-3.154,8.466-5.272,8.165-.052,3.924-.284,9.19-1.221,11.718-2.39,6.47-12.737,19.467-17.957,25.578-4.745,5.55-7.679,8.634-11.365,10.2a17.3,17.3,0,0,1-6.869,1.256,13.821,13.821,0,0,1-6.47-1.557c-3.027-1.586-6.5-3.912-11.84-9.8-5.515-6.088-16.643-19.5-17.881-25.676a106.076,106.076,0,0,1-1.163-12.679.035.035,0,0,1-.023.006c-2.182.365-4.612-3.368-5.434-8.333s.272-9.288,2.454-9.647c1.395-.231,2.888,1.209,4,3.57.9-8.287,2.025-17.928,2.025-17.928,14.855-8.31,30.931-7.8,33.408-7.8h1.852c2.477,0,18.559-.509,33.413,7.8,0,0,1.227,10.469,2.13,18.969,1.076-2.187,2.494-3.5,3.814-3.281C663.269,371.445,664.345,375.675,663.541,380.53Z" transform="translate(-577.77 -347.596)"/>
      </g>
      <g id="Hairs_Level_2" data-name="Hairs Level 2" transform="translate(390.372 180.402)">
        <g id="Group_8586" data-name="Group 8586">
          <path id="Path_101" data-name="Path 101" class="cls-20" d="M670.121,269.463s11.525-11.4,21.473-8.555,19.4,12.2,14.381,18.6-20.882-.985-20.882-.985Z" transform="translate(-590.48 -259.171)"/>
          <path id="Path_102" data-name="Path 102" class="cls-20" d="M713.565,431.1s16.45-8.742,21.867-3.054c2.765,2.9.641,3.793-.788,5.861s-5.369,5.565-7.191,5.861-13.347,1.379-14.578,1.182-2.179-2.775-2.179-2.775A21.783,21.783,0,0,0,713.565,431.1Z" transform="translate(-607.575 -328.971)"/>
          <path id="Path_103" data-name="Path 103" d="M765.009,364.363s5.57-2.307,5.314,4.149a8.721,8.721,0,0,1-8.169,8.374C760.217,376.839,765.009,364.363,765.009,364.363Z" transform="translate(-629.061 -302.781)"/>
          <path id="Path_104" data-name="Path 104" d="M743.311,302.046s7.006-5.208,8.724.874c0,0,8.7-.736,10.037,3.609s.067,13.214-4.224,14.3S743.311,302.046,743.311,302.046Z" transform="translate(-621.316 -275.821)"/>
          <path id="Path_105" data-name="Path 105" class="cls-39" d="M602.547,267.681a11.627,11.627,0,0,1,10.342-9.062c8.963-1.083,12.707,0,16.647,5.221a6.985,6.985,0,0,1-5.811,4.36C619,268.961,602.547,267.681,602.547,267.681Z" transform="translate(-562.01 -258.239)"/>
          <path id="Path_106" data-name="Path 106" class="cls-20" d="M553.733,321.743s-11.264-1.424-7.651-15.313,16.948-15.335,23.135-14.07Z" transform="translate(-537.92 -272.462)"/>
          <path id="Path_107" data-name="Path 107" d="M541.718,415.661s-3.7,0-4.067,2.253-1.551,5.024-1,6.021,5.171,4.211,5.762,4.1a2.682,2.682,0,0,0,.693,2.623,10.156,10.156,0,0,0,6.362,1.44c2.069-.369,1.664-2.7,1.664-2.7s0,2.851,1.919,4,4.839,1.884,6.169,1.588a6.419,6.419,0,0,0,4.322-3.878c.96-2.4-6.908-3.44-9.124-5.044S541.718,415.661,541.718,415.661Z" transform="translate(-534.188 -324.563)"/>
          <path id="Path_108" data-name="Path 108" d="M539,392.625s-8.517-3.591-6.055-10.168,11.278-7.588,11.992-4.866S539,392.625,539,392.625Z" transform="translate(-532.498 -307.929)"/>
        </g>
      </g>
      <g id="Hairs_level_1" data-name="Hairs level 1" transform="translate(393.664 182.944)">
        <path id="Path_109" data-name="Path 109" class="cls-15" d="M567.217,351.548s2.455,2.595,1.838,5.747-2.281,8.006-4.4,8.78a9.542,9.542,0,0,1-4.32.167c-.136.116-3.614,2.833-5.88,1.72a3.689,3.689,0,0,1-2.3-2.992s-6.963-.943-8.144-4.211a10.228,10.228,0,0,1,0-6.42s-2.367-3.647-2.316-4.926,0-2.56,0-2.56-4.948-5.713-3.088-10.638a14.23,14.23,0,0,1,5.4-6.993s-3.552-3.023-2.613-11.8,10.681-8.828,10.681-8.828-7.888.933-9.653-1.924-1.486-7.782,0-10.047,7-6.979,10.055-7.823.713-5.506,5.626-6.82,7.55-.736,8.01.058-3.059-5.509,4.9-10.729,10.915-2.186,10.915-2.186,4.879-2.572,8.219-2.523,8.8.658,8.8.658,1.177-4.42,8.971-4.617,14.056,5.281,14.056,5.281a19.036,19.036,0,0,1,12.159.4,23.09,23.09,0,0,1,9.512,8s6.937-.387,9.2,1.485,6.151,5.644,6.326,7.8,6.022-.462,8.023,2.658,3.632,5.838,3.187,7.866-.738,1.519-.738,1.519a17.353,17.353,0,0,1,1.776,3.066c1.549,2.922,1.025,4.487,0,5.28s-1.658,1.281-1.658,1.281,5.443,3.235,5.246,6.289-2.481,7.32-2.481,7.32,3.618,1.223,3.354,3.356-3.816,4.4-3.816,4.4-.381,3.541-1.228,3.955-2.855,3.666-2.855,3.666,4.329,1.032,3.068,5.172-3.345,4.692-3.345,4.692,2.01,3.874.777,4.668a5.683,5.683,0,0,0-2.136,3.8c-.2,1.325-2.335,3.79-3.551,3.341s-7.683,1.7-7.683,1.7,5.535-.859,5.87.322-3.924,3.7-3.924,3.7l-5.295,3.536-2.384,1.035s.727,1.821-1.134,1.972-6.087,2.205-7.787,0-1.437-2.722-.459-5.428.812-2.262.781-6.05-1.322-5.762-.144-6.156,2.862.608,4.5-2.544,2.185-7.827,1.986-8.34-.425-3.733-1.06-5.112a2.224,2.224,0,0,0-2.347-1.077s-2.941,7.323-3.259,9.292-2.435,3.275-3.051,2.376-1.8-3.159-.911-4.836,2.605-3.536,3.053-6.616-.354-9.059-.354-9.059-4.1,3.7-6.944-3.22c0,0-1.788,6.742-6.461,6.32s-7.916-1.768-8.012-6.32-.632-1.03-.632-1.03-1.537,3.549-4.588,4.249-7.544-2.826-7.908-6.431c0,0-3.979,3.833-7.332,3.211a32.816,32.816,0,0,1-6.208-1.848,8.4,8.4,0,0,1-3.771,3.58c-2.458,1.006-6.789.2-6.789.2s.646,2.29-3.056,4.388a44.8,44.8,0,0,1-6.7,3.134,14.26,14.26,0,0,1,.591,4.694c0,3.169.484,6.222-.153,6.813s-2.767,0-3.179-.1,1-2.141.969-3.73-.9-2.261-1.209-3.029a12.8,12.8,0,0,0-2.1-2.917c-.43-.387-3.191-.827-3.784,1.093a15.034,15.034,0,0,0-.179,8.386c.807,3.755,1.7,6.279,2.929,7.03A3.571,3.571,0,0,0,567.217,351.548Z" transform="translate(-538.187 -262.631)"/>
      </g>
      <g id="Plate" transform="translate(390.181 373.06)">
        <g id="Group_8587" data-name="Group 8587">
          <path id="Path_110" data-name="Path 110" class="cls-40" d="M675.093,617.75a10.375,10.375,0,0,1-.756,3.861c-7.492-11.694-35.761-20.39-69.5-20.39-35.952,0-65.7,9.878-70.71,22.735a11.329,11.329,0,0,1-1.963-6.207c0-14.687,32-26.591,71.459-26.591S675.093,603.063,675.093,617.75Z" transform="translate(-532.168 -591.159)"/>
          <path id="Path_111" data-name="Path 111" class="cls-41" d="M675.766,628.937a17.455,17.455,0,0,1-5.164,6.743c-11,9.409-36.213,15.986-65.546,15.986-28.992,0-53.954-6.423-65.156-15.66a20.794,20.794,0,0,1-4.341-4.723c5.01-12.858,34.758-22.736,70.71-22.736C640.006,608.547,668.274,617.242,675.766,628.937Z" transform="translate(-533.597 -598.485)"/>
          <path id="Path_112" data-name="Path 112" class="cls-42" d="M673.762,655.433c-.353,2.617-1.232,5.469-2.142,6.331-11.809,11.121-29.717,16.725-63.366,16.725s-50.8-4.76-63.026-17.335a18.711,18.711,0,0,1-2.167-5.395c11.2,9.237,36.163,15.66,65.156,15.66C637.55,671.419,662.759,664.842,673.762,655.433Z" transform="translate(-536.757 -618.238)"/>
        </g>
        <path id="Path_113" data-name="Path 113" class="cls-43" d="M660.905,637.619s-19.415,5.063-54.09.035-41.666-11.221-39.721-16.175,13.715-12.384,13.715-12.384,1.14-.752,3.1-1.939c8.345-5.064,31.544-18,44.582-14.061,6.655,2.007,14.687,7.974,22,14.252,10.364,8.906,19.835,17.053,20.723,18.223C676.151,632.077,660.905,637.619,660.905,637.619Z" transform="translate(-546.758 -591.665)"/>
        <path id="Path_114" data-name="Path 114" class="cls-44" d="M662.609,607.347c-7.587,5.423-12.244,8.107-23.9,3.831-13.472-4.943-7.807-4.514-23.553,0-7.077,2.031-13.836-.562-19.126-4.022,8.345-5.064,31.544-18,44.582-14.061C647.268,595.1,655.3,601.068,662.609,607.347Z" transform="translate(-559.074 -591.665)"/>
      </g>
      <g id="Hand_Right" data-name="Hand Right" transform="translate(516.402 372.669)">
        <g id="Group_8588" data-name="Group 8588">
          <path id="Path_115" data-name="Path 115" class="cls-14" d="M753.976,611.932s-4.592,1.289-3.532,2.232,20.2,5.282,20.2,5.282,3.387,2.131,3.428,4.406c.035,1.953-17.866,12.077-17.866,12.077l-5.452,4.2s41.119-6.974,47.439-8.86,59.684-10.087,59.684-10.087-5.86-21.089-1.3-30.416c0,0-48.223,26.209-58.6,24.326S753.976,611.932,753.976,611.932Z" transform="translate(-750.285 -590.604)"/>
          <path id="Path_116" data-name="Path 116" class="cls-45" d="M754.234,611.65s-5.606,1.513-2.835,2.562,19.5,4.951,19.5,4.951,10.741,1.52,12.474,3.429,12.823-.3,17.411-.671,54.429-18.143,54.429-18.143-.711-3.063,1.62-13.294c0,0-39.263,21.006-50.659,23.176s-11.185.1-12.57-.172S754.234,611.65,754.234,611.65Z" transform="translate(-750.43 -590.485)"/>
          <path id="Path_117" data-name="Path 117" class="cls-46" d="M772.053,642.479l5.564-.735s2.64,2.008,2.2,3.932-15.6,10.5-15.6,10.5,2.752-3.639,2.7-7.216C766.917,648.96,771.327,645.388,772.053,642.479Z" transform="translate(-756.153 -612.081)"/>
        </g>
      </g>
      <g id="Hand_Left" data-name="Hand Left" transform="translate(299.675 372.751)">
        <g id="Group_8589" data-name="Group 8589" transform="translate(0)">
          <path id="Path_118" data-name="Path 118" class="cls-47" d="M479.668,612.074s4.592,1.288,3.532,2.231-20.2,5.282-20.2,5.282-3.387,2.131-3.428,4.406c-.035,1.954,17.866,12.078,17.866,12.078l5.452,4.2s-41.119-6.974-47.439-8.86-59.684-10.087-59.684-10.087,5.86-21.088,1.3-30.415c0,0,48.223,26.209,58.6,24.325S479.668,612.074,479.668,612.074Z" transform="translate(-375.769 -590.745)"/>
          <path id="Path_119" data-name="Path 119" class="cls-45" d="M480.418,611.791s5.606,1.513,2.835,2.563-19.5,4.951-19.5,4.951-10.741,1.52-12.474,3.429-12.823-.3-17.412-.671-54.428-18.143-54.428-18.143.711-3.063-1.621-13.294c0,0,39.263,21.006,50.66,23.177s11.185.1,12.57-.173S480.418,611.791,480.418,611.791Z" transform="translate(-376.631 -590.626)"/>
          <path id="Path_120" data-name="Path 120" class="cls-46" d="M528.526,642.62l-5.564-.735s-2.64,2.008-2.2,3.932,15.6,10.5,15.6,10.5-2.752-3.639-2.7-7.216C533.662,649.1,529.252,645.529,528.526,642.62Z" transform="translate(-436.836 -612.222)"/>
        </g>
      </g>
    </g>
  </g>
</svg>
